<?xml version="1.0" encoding="UTF-8" standalone="no"?>
<svg
   xmlns:dc="http://purl.org/dc/elements/1.1/"
   xmlns:cc="http://creativecommons.org/ns#"
   xmlns:rdf="http://www.w3.org/1999/02/22-rdf-syntax-ns#"
   xmlns:svg="http://www.w3.org/2000/svg"
   xmlns="http://www.w3.org/2000/svg"
   xmlns:sodipodi="http://sodipodi.sourceforge.net/DTD/sodipodi-0.dtd"
   xmlns:inkscape="http://www.inkscape.org/namespaces/inkscape"
   width="85.438pt"
   height="28.745pt"
   viewBox="0 0 85.438 28.745"
   version="1.2"
   id="svg39"
   sodipodi:docname="braid-long.pdf">
  <metadata
     id="metadata43">
    <rdf:RDF>
      <cc:Work
         rdf:about="">
        <dc:format>image/svg+xml</dc:format>
        <dc:type
           rdf:resource="http://purl.org/dc/dcmitype/StillImage" />
      </cc:Work>
    </rdf:RDF>
  </metadata>
  <sodipodi:namedview
     pagecolor="#ffffff"
     bordercolor="#666666"
     borderopacity="1"
     objecttolerance="10"
     gridtolerance="10"
     guidetolerance="10"
     inkscape:pageopacity="0"
     inkscape:pageshadow="2"
     inkscape:window-width="640"
     inkscape:window-height="480"
     id="namedview41" />
  <defs
     id="defs14">
    <clipPath
       id="clip1">
      <path
         d="M 0 0 L 29 0 L 29 28.746094 L 0 28.746094 Z M 0 0 "
         id="path2" />
    </clipPath>
    <clipPath
       id="clip2">
      <path
         d="M 28 0 L 58 0 L 58 28.746094 L 28 28.746094 Z M 28 0 "
         id="path5" />
    </clipPath>
    <clipPath
       id="clip3">
      <path
         d="M 56 0 L 85.4375 0 L 85.4375 28.746094 L 56 28.746094 Z M 56 0 "
         id="path8" />
    </clipPath>
    <clipPath
       id="clip4">
      <path
         d="M 0 0 L 85.4375 0 L 85.4375 28.746094 L 0 28.746094 Z M 0 0 "
         id="path11" />
    </clipPath>
  </defs>
  <g
     id="surface2">
    <g
       clip-path="url(#clip1)"
       clip-rule="nonzero"
       id="g18">
      <path
         style="fill:none;stroke-width:0.3985;stroke-linecap:round;stroke-linejoin:round;stroke:rgb(0%,0%,0%);stroke-opacity:1;stroke-miterlimit:10;"
         d="M 28.347875 -0.00021875 L 0.00021875 -28.347875 "
         transform="matrix(1,0,0,-1,0.199,0.199)"
         id="path16" />
    </g>
    <path
       style="fill-rule:nonzero;fill:rgb(100%,100%,100%);fill-opacity:1;stroke-width:0.3985;stroke-linecap:round;stroke-linejoin:round;stroke:rgb(100%,100%,100%);stroke-opacity:1;stroke-miterlimit:10;"
       d="M 24.093969 -7.086156 C 24.093969 -8.652563 22.824437 -9.922094 21.261937 -9.922094 C 19.695531 -9.922094 18.426 -8.652563 18.426 -7.086156 C 18.426 -5.51975 19.695531 -4.250219 21.261937 -4.250219 C 22.824437 -4.250219 24.093969 -5.51975 24.093969 -7.086156 Z M 24.093969 -7.086156 "
       transform="matrix(1,0,0,-1,0.199,0.199)"
       id="path20" />
    <g
       clip-path="url(#clip2)"
       clip-rule="nonzero"
       id="g24">
      <path
         style="fill:none;stroke-width:0.3985;stroke-linecap:round;stroke-linejoin:round;stroke:rgb(0%,0%,0%);stroke-opacity:1;stroke-miterlimit:10;"
         d="M 56.695531 -0.00021875 L 28.347875 -28.347875 "
         transform="matrix(1,0,0,-1,0.199,0.199)"
         id="path22" />
    </g>
    <path
       style="fill-rule:nonzero;fill:rgb(100%,100%,100%);fill-opacity:1;stroke-width:0.3985;stroke-linecap:round;stroke-linejoin:round;stroke:rgb(100%,100%,100%);stroke-opacity:1;stroke-miterlimit:10;"
       d="M 45.355688 -14.172094 C 45.355688 -15.7385 44.086156 -17.008031 42.51975 -17.008031 C 40.953344 -17.008031 39.683813 -15.7385 39.683813 -14.172094 C 39.683813 -12.609594 40.953344 -11.340063 42.51975 -11.340063 C 44.086156 -11.340063 45.355688 -12.609594 45.355688 -14.172094 Z M 45.355688 -14.172094 "
       transform="matrix(1,0,0,-1,0.199,0.199)"
       id="path26" />
    <g
       clip-path="url(#clip3)"
       clip-rule="nonzero"
       id="g30">
      <path
         style="fill:none;stroke-width:0.3985;stroke-linecap:round;stroke-linejoin:round;stroke:rgb(0%,0%,0%);stroke-opacity:1;stroke-miterlimit:10;"
         d="M 85.039281 -0.00021875 L 56.695531 -28.347875 "
         transform="matrix(1,0,0,-1,0.199,0.199)"
         id="path28" />
    </g>
    <path
       style="fill-rule:nonzero;fill:rgb(100%,100%,100%);fill-opacity:1;stroke-width:0.3985;stroke-linecap:round;stroke-linejoin:round;stroke:rgb(100%,100%,100%);stroke-opacity:1;stroke-miterlimit:10;"
       d="M 66.6135 -21.261938 C 66.6135 -22.824438 65.347875 -24.093969 63.781469 -24.093969 C 62.215063 -24.093969 60.945531 -22.824438 60.945531 -21.261938 C 60.945531 -19.695531 62.215063 -18.426 63.781469 -18.426 C 65.347875 -18.426 66.6135 -19.695531 66.6135 -21.261938 Z M 66.6135 -21.261938 "
       transform="matrix(1,0,0,-1,0.199,0.199)"
       id="path32" />
    <g
       clip-path="url(#clip4)"
       clip-rule="nonzero"
       id="g36">
      <path
         style="fill:none;stroke-width:0.3985;stroke-linecap:round;stroke-linejoin:round;stroke:rgb(0%,0%,0%);stroke-opacity:1;stroke-miterlimit:10;"
         d="M 0.00021875 -0.00021875 L 85.039281 -28.347875 "
         transform="matrix(1,0,0,-1,0.199,0.199)"
         id="path34" />
    </g>
  </g>
</svg>
