<?xml version="1.0" encoding="UTF-8" standalone="no"?>
<svg
   xmlns:dc="http://purl.org/dc/elements/1.1/"
   xmlns:cc="http://creativecommons.org/ns#"
   xmlns:rdf="http://www.w3.org/1999/02/22-rdf-syntax-ns#"
   xmlns:svg="http://www.w3.org/2000/svg"
   xmlns="http://www.w3.org/2000/svg"
   xmlns:sodipodi="http://sodipodi.sourceforge.net/DTD/sodipodi-0.dtd"
   xmlns:inkscape="http://www.inkscape.org/namespaces/inkscape"
   width="14.572pt"
   height="14.572pt"
   viewBox="0 0 14.572 14.572"
   version="1.2"
   id="svg21"
   sodipodi:docname="braid2.pdf">
  <metadata
     id="metadata25">
    <rdf:RDF>
      <cc:Work
         rdf:about="">
        <dc:format>image/svg+xml</dc:format>
        <dc:type
           rdf:resource="http://purl.org/dc/dcmitype/StillImage" />
      </cc:Work>
    </rdf:RDF>
  </metadata>
  <sodipodi:namedview
     pagecolor="#ffffff"
     bordercolor="#666666"
     borderopacity="1"
     objecttolerance="10"
     gridtolerance="10"
     guidetolerance="10"
     inkscape:pageopacity="0"
     inkscape:pageshadow="2"
     inkscape:window-width="640"
     inkscape:window-height="480"
     id="namedview23" />
  <defs
     id="defs8">
    <clipPath
       id="clip1">
      <path
         d="M 0 0 L 14.570312 0 L 14.570312 14.570312 L 0 14.570312 Z M 0 0 "
         id="path2" />
    </clipPath>
    <clipPath
       id="clip2">
      <path
         d="M 0 0 L 14.570312 0 L 14.570312 14.570312 L 0 14.570312 Z M 0 0 "
         id="path5" />
    </clipPath>
  </defs>
  <g
     id="surface2">
    <g
       clip-path="url(#clip1)"
       clip-rule="nonzero"
       id="g12">
      <path
         style="fill:none;stroke-width:0.3985;stroke-linecap:round;stroke-linejoin:round;stroke:rgb(0%,0%,0%);stroke-opacity:1;stroke-miterlimit:10;"
         d="M 0.00021875 0.00078125 L 14.172094 -14.175 "
         transform="matrix(1,0,0,-1,0.199,0.2)"
         id="path10" />
    </g>
    <path
       style="fill-rule:nonzero;fill:rgb(100%,100%,100%);fill-opacity:1;stroke-width:0.3985;stroke-linecap:round;stroke-linejoin:round;stroke:rgb(100%,100%,100%);stroke-opacity:1;stroke-miterlimit:10;"
       d="M 8.504125 -7.085156 C 8.504125 -7.870313 7.871313 -8.503125 7.086156 -8.503125 C 6.304906 -8.503125 5.668188 -7.870313 5.668188 -7.085156 C 5.668188 -6.303906 6.304906 -5.671094 7.086156 -5.671094 C 7.871313 -5.671094 8.504125 -6.303906 8.504125 -7.085156 Z M 8.504125 -7.085156 "
       transform="matrix(1,0,0,-1,0.199,0.2)"
       id="path14" />
    <g
       clip-path="url(#clip2)"
       clip-rule="nonzero"
       id="g18">
      <path
         style="fill:none;stroke-width:0.3985;stroke-linecap:round;stroke-linejoin:round;stroke:rgb(0%,0%,0%);stroke-opacity:1;stroke-miterlimit:10;"
         d="M 14.172094 0.00078125 L 0.00021875 -14.175 "
         transform="matrix(1,0,0,-1,0.199,0.2)"
         id="path16" />
    </g>
  </g>
</svg>
