<?xml version="1.0" encoding="UTF-8" standalone="no"?>
<svg
   xmlns:dc="http://purl.org/dc/elements/1.1/"
   xmlns:cc="http://creativecommons.org/ns#"
   xmlns:rdf="http://www.w3.org/1999/02/22-rdf-syntax-ns#"
   xmlns:svg="http://www.w3.org/2000/svg"
   xmlns="http://www.w3.org/2000/svg"
   xmlns:sodipodi="http://sodipodi.sourceforge.net/DTD/sodipodi-0.dtd"
   xmlns:inkscape="http://www.inkscape.org/namespaces/inkscape"
   width="28.745pt"
   height="28.745pt"
   viewBox="0 0 28.745 28.745"
   version="1.2"
   id="svg30"
   sodipodi:docname="circle.pdf">
  <metadata
     id="metadata34">
    <rdf:RDF>
      <cc:Work
         rdf:about="">
        <dc:format>image/svg+xml</dc:format>
        <dc:type
           rdf:resource="http://purl.org/dc/dcmitype/StillImage" />
      </cc:Work>
    </rdf:RDF>
  </metadata>
  <sodipodi:namedview
     pagecolor="#ffffff"
     bordercolor="#666666"
     borderopacity="1"
     objecttolerance="10"
     gridtolerance="10"
     guidetolerance="10"
     inkscape:pageopacity="0"
     inkscape:pageshadow="2"
     inkscape:window-width="640"
     inkscape:window-height="480"
     id="namedview32" />
  <defs
     id="defs11">
    <clipPath
       id="clip1">
      <path
         d="M 14 0 L 28.746094 0 L 28.746094 15 L 14 15 Z M 14 0 "
         id="path2" />
    </clipPath>
    <clipPath
       id="clip2">
      <path
         d="M 0 14 L 15 14 L 15 28.746094 L 0 28.746094 Z M 0 14 "
         id="path5" />
    </clipPath>
    <clipPath
       id="clip3">
      <path
         d="M 14 14 L 28.746094 14 L 28.746094 28.746094 L 14 28.746094 Z M 14 14 "
         id="path8" />
    </clipPath>
  </defs>
  <g
     id="surface2">
    <path
       style="fill:none;stroke-width:0.3985;stroke-linecap:round;stroke-linejoin:round;stroke:rgb(0%,0%,0%);stroke-opacity:1;stroke-miterlimit:10;"
       d="M 0.00021875 -0.00021875 L 14.172094 -14.172094 "
       transform="matrix(1,0,0,-1,0.199,0.199)"
       id="path13" />
    <g
       clip-path="url(#clip1)"
       clip-rule="nonzero"
       id="g17">
      <path
         style="fill:none;stroke-width:0.3985;stroke-linecap:round;stroke-linejoin:round;stroke:rgb(0%,0%,0%);stroke-opacity:1;stroke-miterlimit:10;"
         d="M 28.347875 -0.00021875 L 14.172094 -14.172094 "
         transform="matrix(1,0,0,-1,0.199,0.199)"
         id="path15" />
    </g>
    <g
       clip-path="url(#clip2)"
       clip-rule="nonzero"
       id="g21">
      <path
         style="fill:none;stroke-width:0.3985;stroke-linecap:round;stroke-linejoin:round;stroke:rgb(0%,0%,0%);stroke-opacity:1;stroke-miterlimit:10;"
         d="M 14.172094 -14.172094 L 0.00021875 -28.347875 "
         transform="matrix(1,0,0,-1,0.199,0.199)"
         id="path19" />
    </g>
    <g
       clip-path="url(#clip3)"
       clip-rule="nonzero"
       id="g25">
      <path
         style="fill:none;stroke-width:0.3985;stroke-linecap:round;stroke-linejoin:round;stroke:rgb(0%,0%,0%);stroke-opacity:1;stroke-miterlimit:10;"
         d="M 14.172094 -14.172094 L 28.347875 -28.347875 "
         transform="matrix(1,0,0,-1,0.199,0.199)"
         id="path23" />
    </g>
    <path
       style="fill-rule:nonzero;fill:rgb(100%,100%,100%);fill-opacity:1;stroke-width:0.3985;stroke-linecap:round;stroke-linejoin:round;stroke:rgb(0%,0%,0%);stroke-opacity:1;stroke-miterlimit:10;"
       d="M 17.008031 -14.172094 C 17.008031 -15.7385 15.7385 -17.008031 14.172094 -17.008031 C 12.609594 -17.008031 11.340063 -15.7385 11.340063 -14.172094 C 11.340063 -12.609594 12.609594 -11.340063 14.172094 -11.340063 C 15.7385 -11.340063 17.008031 -12.609594 17.008031 -14.172094 Z M 17.008031 -14.172094 "
       transform="matrix(1,0,0,-1,0.199,0.199)"
       id="path27" />
  </g>
</svg>
