<?xml version="1.0" encoding="UTF-8"?>
<svg xmlns="http://www.w3.org/2000/svg" xmlns:xlink="http://www.w3.org/1999/xlink" width="51.683998" height="57.490002" viewBox="0 0 51.683998 57.490002">
<defs>
<clipPath id="clip-0">
<path clip-rule="nonzero" d="M 11 28 L 13 28 L 13 56.984375 L 11 56.984375 Z M 11 28 "/>
</clipPath>
<clipPath id="clip-1">
<path clip-rule="nonzero" d="M 39 42 L 41 42 L 41 56.984375 L 39 56.984375 Z M 39 42 "/>
</clipPath>
</defs>
<path fill="none" stroke-width="0.3985" stroke-linecap="round" stroke-linejoin="round" stroke="rgb(100%, 0%, 0%)" stroke-opacity="1" stroke-miterlimit="10" d="M 0.00119882 0.00195468 L 0.00119882 -7.087729 " transform="matrix(1.982414, 0, 0, -1.982414, 11.786686, 0.3945)"/>
<path fill="none" stroke-width="0.3985" stroke-linecap="round" stroke-linejoin="round" stroke="rgb(100%, 0%, 0%)" stroke-opacity="1" stroke-miterlimit="10" d="M 0.00119882 -7.087729 L 0.00119882 -14.173471 " transform="matrix(1.982414, 0, 0, -1.982414, 11.786686, 0.3945)"/>
<path fill-rule="nonzero" fill="rgb(100%, 100%, 100%)" fill-opacity="1" stroke-width="0.3985" stroke-linecap="round" stroke-linejoin="round" stroke="rgb(100%, 0%, 0%)" stroke-opacity="1" stroke-miterlimit="10" d="M 4.253432 -7.087729 C 4.253432 -9.436506 2.349977 -11.339962 0.00119882 -11.339962 C -2.347579 -11.339962 -4.251035 -9.436506 -4.251035 -7.087729 C -4.251035 -4.738951 -2.347579 -2.835495 0.00119882 -2.835495 C 2.349977 -2.835495 4.253432 -4.738951 4.253432 -7.087729 Z M 4.253432 -7.087729 " transform="matrix(1.982414, 0, 0, -1.982414, 11.786686, 0.3945)"/>
<path fill-rule="nonzero" fill="rgb(100%, 0%, 0%)" fill-opacity="1" d="M 14.214844 15.480469 C 15.464844 14.167969 15.996094 12.324219 15.996094 12.167969 C 15.996094 11.980469 15.808594 11.980469 15.746094 11.980469 C 15.558594 11.980469 15.558594 12.042969 15.464844 12.324219 C 15.214844 13.261719 14.746094 14.074219 14.183594 14.824219 C 14.152344 14.636719 14.152344 13.699219 14.121094 13.574219 C 13.902344 12.199219 12.871094 11.324219 11.496094 11.324219 C 9.464844 11.324219 7.496094 13.230469 7.496094 15.167969 C 7.496094 16.417969 8.433594 17.542969 10.027344 17.542969 C 11.308594 17.542969 12.464844 16.980469 13.214844 16.386719 C 13.558594 17.386719 14.246094 17.542969 14.652344 17.542969 C 15.464844 17.542969 15.964844 16.886719 15.964844 16.574219 C 15.964844 16.417969 15.808594 16.417969 15.714844 16.417969 C 15.558594 16.417969 15.527344 16.480469 15.496094 16.574219 C 15.308594 17.074219 14.871094 17.167969 14.714844 17.167969 C 14.496094 17.167969 14.277344 17.167969 14.214844 15.480469 Z M 13.121094 15.949219 C 11.777344 17.042969 10.589844 17.167969 10.089844 17.167969 C 9.152344 17.167969 8.652344 16.574219 8.652344 15.636719 C 8.652344 15.230469 8.839844 13.730469 9.558594 12.761719 C 10.214844 11.949219 10.996094 11.699219 11.464844 11.699219 C 12.589844 11.699219 12.902344 12.761719 12.996094 13.636719 C 13.089844 14.230469 13.058594 15.199219 13.121094 15.949219 Z M 13.121094 15.949219 "/>
<path fill="none" stroke-width="0.3985" stroke-linecap="round" stroke-linejoin="round" stroke="rgb(0%, 0%, 0%)" stroke-opacity="1" stroke-miterlimit="10" d="M 14.172684 0.00195468 L 14.172684 -14.173471 " transform="matrix(1.982414, 0, 0, -1.982414, 11.786686, 0.3945)"/>
<g clip-path="url(#clip-0)">
<path fill="none" stroke-width="0.3985" stroke-linecap="round" stroke-linejoin="round" stroke="rgb(100%, 0%, 0%)" stroke-opacity="1" stroke-miterlimit="10" d="M 0.00119882 -14.173471 L 0.00119882 -28.344956 " transform="matrix(1.982414, 0, 0, -1.982414, 11.786686, 0.3945)"/>
</g>
<path fill="none" stroke-width="0.3985" stroke-linecap="round" stroke-linejoin="round" stroke="rgb(0%, 0%, 0%)" stroke-opacity="1" stroke-miterlimit="10" d="M 14.172684 -14.173471 L 14.172684 -21.259213 " transform="matrix(1.982414, 0, 0, -1.982414, 11.786686, 0.3945)"/>
<g clip-path="url(#clip-1)">
<path fill="none" stroke-width="0.3985" stroke-linecap="round" stroke-linejoin="round" stroke="rgb(0%, 0%, 0%)" stroke-opacity="1" stroke-miterlimit="10" d="M 14.172684 -21.259213 L 14.172684 -28.344956 " transform="matrix(1.982414, 0, 0, -1.982414, 11.786686, 0.3945)"/>
</g>
<path fill-rule="nonzero" fill="rgb(100%, 100%, 100%)" fill-opacity="1" stroke-width="0.3985" stroke-linecap="round" stroke-linejoin="round" stroke="rgb(0%, 0%, 0%)" stroke-opacity="1" stroke-miterlimit="10" d="M 18.424917 -21.259213 C 18.424917 -23.607991 16.521461 -25.511447 14.172684 -25.511447 C 11.823906 -25.511447 9.92045 -23.607991 9.92045 -21.259213 C 9.92045 -18.910436 11.823906 -17.00698 14.172684 -17.00698 C 16.521461 -17.00698 18.424917 -18.910436 18.424917 -21.259213 Z M 18.424917 -21.259213 " transform="matrix(1.982414, 0, 0, -1.982414, 11.786686, 0.3945)"/>
<path fill-rule="nonzero" fill="rgb(0%, 0%, 0%)" fill-opacity="1" d="M 43.800781 38.183594 C 43.800781 36.964844 42.738281 36.246094 41.519531 36.246094 C 39.644531 36.246094 38.238281 38.402344 37.894531 39.808594 L 35.738281 48.496094 C 35.707031 48.621094 35.832031 48.683594 35.925781 48.683594 C 36.050781 48.683594 36.144531 48.652344 36.175781 48.589844 L 37.113281 44.902344 C 37.394531 45.527344 38.050781 46.121094 39.175781 46.121094 C 41.113281 46.121094 43.300781 44.714844 43.300781 42.621094 C 43.300781 41.808594 42.925781 40.964844 42.207031 40.527344 C 42.894531 40.089844 43.800781 39.308594 43.800781 38.183594 Z M 41.050781 40.496094 C 40.863281 40.527344 40.769531 40.589844 40.363281 40.589844 C 40.144531 40.589844 39.800781 40.589844 39.707031 40.527344 C 39.832031 40.433594 40.238281 40.433594 40.363281 40.433594 C 40.550781 40.433594 40.863281 40.433594 41.050781 40.496094 Z M 42.894531 37.933594 C 42.894531 38.652344 42.519531 39.746094 41.675781 40.214844 C 41.394531 40.152344 41.144531 40.027344 40.363281 40.027344 C 39.894531 40.027344 39.207031 40.058594 39.207031 40.558594 C 39.207031 40.902344 39.613281 40.964844 40.332031 40.964844 C 40.800781 40.964844 41.207031 40.902344 41.644531 40.777344 C 42.050781 41.058594 42.269531 41.621094 42.269531 42.246094 C 42.269531 44.246094 40.894531 45.746094 39.207031 45.746094 C 38.144531 45.746094 37.394531 45.089844 37.394531 43.996094 C 37.394531 43.839844 37.425781 43.714844 37.425781 43.589844 L 38.363281 39.933594 C 38.675781 38.621094 39.894531 36.652344 41.488281 36.652344 C 42.300781 36.652344 42.894531 37.089844 42.894531 37.933594 Z M 42.894531 37.933594 "/>
</svg>
