<?xml version="1.0" encoding="UTF-8"?>
<svg xmlns="http://www.w3.org/2000/svg" xmlns:xlink="http://www.w3.org/1999/xlink" width="46.152" height="29.143999" viewBox="0 0 46.152 29.143999">
<defs>
<clipPath id="clip-0">
<path clip-rule="nonzero" d="M 8 0.148438 L 9 0.148438 L 9 7 L 8 7 Z M 8 0.148438 "/>
</clipPath>
<clipPath id="clip-1">
<path clip-rule="nonzero" d="M 35 0.148438 L 37 0.148438 L 37 7 L 35 7 Z M 35 0.148438 "/>
</clipPath>
<clipPath id="clip-2">
<path clip-rule="nonzero" d="M 21 21 L 23 21 L 23 28.171875 L 21 28.171875 Z M 21 21 "/>
</clipPath>
<clipPath id="clip-3">
<path clip-rule="nonzero" d="M 0 5 L 44.375 5 L 44.375 23 L 0 23 Z M 0 5 "/>
</clipPath>
</defs>
<g clip-path="url(#clip-0)">
<path fill="none" stroke-width="0.3985" stroke-linecap="round" stroke-linejoin="round" stroke="rgb(0%, 0%, 0%)" stroke-opacity="1" stroke-miterlimit="10" d="M 0.00167773 0.00148206 L 0.00167773 -2.834256 " transform="matrix(1.923, 0, 0, -1.923, 8.559274, 0.5341)"/>
</g>
<g clip-path="url(#clip-1)">
<path fill="none" stroke-width="0.3985" stroke-linecap="round" stroke-linejoin="round" stroke="rgb(0%, 0%, 0%)" stroke-opacity="1" stroke-miterlimit="10" d="M 14.172245 0.00148206 L 14.172245 -2.834256 " transform="matrix(1.923, 0, 0, -1.923, 8.559274, 0.5341)"/>
</g>
<g clip-path="url(#clip-2)">
<path fill="none" stroke-width="0.3985" stroke-linecap="round" stroke-linejoin="round" stroke="rgb(0%, 0%, 0%)" stroke-opacity="1" stroke-miterlimit="10" d="M 7.086961 -11.337409 L 7.086961 -14.173148 " transform="matrix(1.923, 0, 0, -1.923, 8.559274, 0.5341)"/>
</g>
<path fill-rule="nonzero" fill="rgb(74.901962%, 74.901962%, 74.901962%)" fill-opacity="1" d="M 2.296875 5.984375 L 42.078125 5.984375 C 43.132812 5.984375 43.992188 6.84375 43.992188 7.898438 L 43.992188 20.421875 C 43.992188 21.484375 43.132812 22.335938 42.078125 22.335938 L 2.296875 22.335938 C 1.242188 22.335938 0.382812 21.484375 0.382812 20.421875 L 0.382812 7.898438 C 0.382812 6.84375 1.242188 5.984375 2.296875 5.984375 Z M 2.296875 5.984375 "/>
<g clip-path="url(#clip-3)">
<path fill="none" stroke-width="0.3985" stroke-linecap="round" stroke-linejoin="round" stroke="rgb(0%, 0%, 0%)" stroke-opacity="1" stroke-miterlimit="10" d="M -3.256578 -2.834256 L 17.4305 -2.834256 C 17.97896 -2.834256 18.425852 -3.281149 18.425852 -3.829609 L 18.425852 -10.342057 C 18.425852 -10.894579 17.97896 -11.337409 17.4305 -11.337409 L -3.256578 -11.337409 C -3.805037 -11.337409 -4.25193 -10.894579 -4.25193 -10.342057 L -4.25193 -3.829609 C -4.25193 -3.281149 -3.805037 -2.834256 -3.256578 -2.834256 Z M -3.256578 -2.834256 " transform="matrix(1.923, 0, 0, -1.923, 8.559274, 0.5341)"/>
</g>
<path fill-rule="nonzero" fill="rgb(0%, 0%, 0%)" fill-opacity="1" d="M 23.171875 12.234375 L 24.484375 12.234375 C 24.734375 12.234375 24.921875 12.234375 24.921875 11.921875 C 24.921875 11.734375 24.734375 11.734375 24.515625 11.734375 L 23.265625 11.734375 C 23.546875 10.046875 23.671875 9.421875 23.765625 9.015625 C 23.828125 8.734375 24.140625 8.453125 24.453125 8.453125 C 24.484375 8.453125 24.828125 8.453125 25.078125 8.609375 C 24.546875 8.796875 24.515625 9.265625 24.515625 9.359375 C 24.515625 9.640625 24.734375 9.859375 25.046875 9.859375 C 25.390625 9.859375 25.796875 9.546875 25.796875 9.015625 C 25.796875 8.421875 25.140625 8.078125 24.453125 8.078125 C 23.859375 8.078125 23.203125 8.421875 22.859375 9.078125 C 22.578125 9.578125 22.484375 10.171875 22.203125 11.734375 L 21.140625 11.734375 C 20.859375 11.734375 20.703125 11.734375 20.703125 12.046875 C 20.703125 12.234375 20.859375 12.234375 21.109375 12.234375 L 22.109375 12.234375 C 22.078125 12.296875 21.234375 17.140625 20.921875 18.546875 C 20.859375 18.859375 20.640625 19.890625 19.984375 19.890625 C 19.984375 19.890625 19.640625 19.890625 19.390625 19.703125 C 19.953125 19.546875 19.984375 19.046875 19.984375 18.984375 C 19.984375 18.671875 19.765625 18.484375 19.453125 18.484375 C 19.078125 18.484375 18.671875 18.796875 18.671875 19.296875 C 18.671875 19.890625 19.296875 20.265625 19.984375 20.265625 C 20.828125 20.265625 21.421875 19.359375 21.578125 19.078125 C 22.078125 18.171875 22.390625 16.515625 22.421875 16.359375 Z M 23.171875 12.234375 "/>
</svg>
