<?xml version="1.0" encoding="UTF-8"?>
<svg xmlns="http://www.w3.org/2000/svg" xmlns:xlink="http://www.w3.org/1999/xlink" width="212.717326" height="38.858665" viewBox="0 0 212.717326 38.858665">
<defs>
<clipPath id="clip-0">
<path clip-rule="nonzero" d="M 32 29.332031 L 34 29.332031 L 34 37.75 L 32 37.75 Z M 32 29.332031 "/>
</clipPath>
<clipPath id="clip-1">
<path clip-rule="nonzero" d="M 2.738281 7 L 63 7 L 63 31 L 2.738281 31 Z M 2.738281 7 "/>
</clipPath>
<clipPath id="clip-2">
<path clip-rule="nonzero" d="M 105 29.332031 L 106.667969 29.332031 L 106.667969 37.75 L 105 37.75 Z M 105 29.332031 "/>
</clipPath>
<clipPath id="clip-3">
<path clip-rule="nonzero" d="M 178.667969 29.332031 L 181 29.332031 L 181 37.75 L 178.667969 37.75 Z M 178.667969 29.332031 "/>
</clipPath>
<clipPath id="clip-4">
<path clip-rule="nonzero" d="M 149.332031 7 L 209.386719 7 L 209.386719 31 L 149.332031 31 Z M 149.332031 7 "/>
</clipPath>
</defs>
<path fill="none" stroke-width="0.3985" stroke-linecap="round" stroke-linejoin="round" stroke="rgb(0%, 0%, 0%)" stroke-opacity="1" stroke-miterlimit="10" d="M 0.00127963 -0.000546814 L 0.00127963 -2.835338 " transform="matrix(2.590579, 0, 0, -2.590579, 14.266216, 0.518115)"/>
<path fill="none" stroke-width="0.3985" stroke-linecap="round" stroke-linejoin="round" stroke="rgb(0%, 0%, 0%)" stroke-opacity="1" stroke-miterlimit="10" d="M 14.17222 -0.000546814 L 14.17222 -2.835338 " transform="matrix(2.590579, 0, 0, -2.590579, 14.266216, 0.518115)"/>
<g clip-path="url(#clip-0)">
<path fill="none" stroke-width="0.3985" stroke-linecap="round" stroke-linejoin="round" stroke="rgb(0%, 0%, 0%)" stroke-opacity="1" stroke-miterlimit="10" d="M 7.08675 -11.339712 L 7.08675 -14.174503 " transform="matrix(2.590579, 0, 0, -2.590579, 14.266216, 0.518115)"/>
</g>
<path fill-rule="nonzero" fill="rgb(74.901961%, 74.901961%, 74.901961%)" fill-opacity="1" d="M 5.832031 7.863281 L 59.417969 7.863281 C 60.84375 7.863281 62 9.019531 62 10.4375 L 62 27.3125 C 62 28.738281 60.84375 29.894531 59.417969 29.894531 L 5.832031 29.894531 C 4.40625 29.894531 3.25 28.738281 3.25 27.3125 L 3.25 10.4375 C 3.25 9.019531 4.40625 7.863281 5.832031 7.863281 Z M 5.832031 7.863281 "/>
<g clip-path="url(#clip-1)">
<path fill="none" stroke-width="0.3985" stroke-linecap="round" stroke-linejoin="round" stroke="rgb(0%, 0%, 0%)" stroke-opacity="1" stroke-miterlimit="10" d="M -3.255715 -2.835338 L 17.429215 -2.835338 C 17.979586 -2.835338 18.425915 -3.281667 18.425915 -3.829023 L 18.425915 -10.343011 C 18.425915 -10.893383 17.979586 -11.339712 17.429215 -11.339712 L -3.255715 -11.339712 C -3.806086 -11.339712 -4.252415 -10.893383 -4.252415 -10.343011 L -4.252415 -3.829023 C -4.252415 -3.281667 -3.806086 -2.835338 -3.255715 -2.835338 Z M -3.255715 -2.835338 " transform="matrix(2.590579, 0, 0, -2.590579, 14.266216, 0.518115)"/>
</g>
<path fill-rule="nonzero" fill="rgb(0%, 0%, 0%)" fill-opacity="1" d="M 33.957031 16.269531 L 35.707031 16.269531 C 36.082031 16.269531 36.289062 16.269531 36.289062 15.851562 C 36.289062 15.601562 36.082031 15.601562 35.75 15.601562 L 34.082031 15.601562 C 34.5 13.308594 34.625 12.476562 34.789062 11.933594 C 34.875 11.558594 35.25 11.183594 35.707031 11.183594 C 35.707031 11.183594 36.207031 11.183594 36.539062 11.394531 C 35.789062 11.601562 35.75 12.269531 35.75 12.394531 C 35.75 12.769531 36.039062 13.058594 36.457031 13.058594 C 36.957031 13.058594 37.5 12.644531 37.5 11.933594 C 37.5 11.101562 36.625 10.644531 35.707031 10.644531 C 34.914062 10.644531 34 11.101562 33.539062 12.019531 C 33.164062 12.683594 33.039062 13.519531 32.625 15.601562 L 31.207031 15.601562 C 30.832031 15.601562 30.625 15.601562 30.625 15.976562 C 30.625 16.269531 30.832031 16.269531 31.164062 16.269531 L 32.5 16.269531 C 32.5 16.351562 31.375 22.851562 30.914062 24.808594 C 30.832031 25.183594 30.539062 26.558594 29.664062 26.558594 C 29.625 26.558594 29.207031 26.558594 28.875 26.351562 C 29.582031 26.144531 29.664062 25.476562 29.664062 25.351562 C 29.664062 24.976562 29.332031 24.683594 28.914062 24.683594 C 28.457031 24.683594 27.914062 25.101562 27.914062 25.808594 C 27.914062 26.601562 28.75 27.101562 29.664062 27.101562 C 30.832031 27.101562 31.625 25.894531 31.832031 25.476562 C 32.457031 24.269531 32.875 22.058594 32.914062 21.851562 Z M 33.957031 16.269531 "/>
<path fill="none" stroke-width="0.3985" stroke-linecap="round" stroke-linejoin="round" stroke="rgb(0%, 0%, 0%)" stroke-opacity="1" stroke-miterlimit="10" d="M 28.346177 -0.000546814 L 28.346177 -2.835338 " transform="matrix(2.590579, 0, 0, -2.590579, 14.266216, 0.518115)"/>
<path fill="none" stroke-width="0.3985" stroke-linecap="round" stroke-linejoin="round" stroke="rgb(0%, 0%, 0%)" stroke-opacity="1" stroke-miterlimit="10" d="M 42.520133 -0.000546814 L 42.520133 -2.835338 " transform="matrix(2.590579, 0, 0, -2.590579, 14.266216, 0.518115)"/>
<g clip-path="url(#clip-2)">
<path fill="none" stroke-width="0.3985" stroke-linecap="round" stroke-linejoin="round" stroke="rgb(0%, 0%, 0%)" stroke-opacity="1" stroke-miterlimit="10" d="M 35.434663 -11.339712 L 35.434663 -14.174503 " transform="matrix(2.590579, 0, 0, -2.590579, 14.266216, 0.518115)"/>
</g>
<path fill-rule="nonzero" fill="rgb(0%, 0%, 100%)" fill-opacity="1" stroke-width="0.3985" stroke-linecap="round" stroke-linejoin="round" stroke="rgb(0%, 0%, 0%)" stroke-opacity="1" stroke-miterlimit="10" d="M 25.092198 -2.835338 L 45.777128 -2.835338 C 46.327499 -2.835338 46.773828 -3.281667 46.773828 -3.829023 L 46.773828 -10.343011 C 46.773828 -10.893383 46.327499 -11.339712 45.777128 -11.339712 L 25.092198 -11.339712 C 24.541827 -11.339712 24.095498 -10.893383 24.095498 -10.343011 L 24.095498 -3.829023 C 24.095498 -3.281667 24.541827 -2.835338 25.092198 -2.835338 Z M 25.092198 -2.835338 " transform="matrix(2.590579, 0, 0, -2.590579, 14.266216, 0.518115)"/>
<path fill-rule="nonzero" fill="rgb(0%, 0%, 0%)" fill-opacity="1" d="M 110.324219 14.339844 C 110.410156 14.046875 110.410156 13.964844 110.410156 13.964844 C 110.410156 13.546875 110.074219 13.382812 109.785156 13.382812 C 109.367188 13.382812 109.035156 13.714844 108.949219 14.046875 C 108.660156 13.589844 108.035156 13.046875 107.074219 13.046875 C 104.824219 13.046875 102.449219 15.464844 102.449219 18.046875 C 102.449219 19.921875 103.699219 21.007812 105.199219 21.007812 C 106.035156 21.007812 106.824219 20.589844 107.449219 20.046875 L 107.074219 21.671875 C 106.867188 22.421875 106.742188 22.921875 106.035156 23.507812 C 105.242188 24.171875 104.492188 24.171875 104.035156 24.171875 C 103.199219 24.171875 102.949219 24.132812 102.617188 24.046875 C 103.074219 23.839844 103.199219 23.421875 103.199219 23.171875 C 103.199219 22.714844 102.867188 22.507812 102.492188 22.507812 C 101.992188 22.507812 101.492188 22.921875 101.492188 23.589844 C 101.492188 24.671875 103.035156 24.714844 104.035156 24.714844 C 106.867188 24.714844 108.117188 23.257812 108.367188 22.214844 Z M 107.824219 18.589844 C 107.742188 18.882812 107.742188 18.921875 107.449219 19.257812 C 106.824219 20.046875 105.949219 20.507812 105.242188 20.507812 C 104.324219 20.507812 103.910156 19.714844 103.910156 18.796875 C 103.910156 18.007812 104.410156 15.964844 104.867188 15.171875 C 105.617188 13.882812 106.449219 13.546875 107.074219 13.546875 C 108.367188 13.546875 108.699219 14.882812 108.699219 15.089844 C 108.699219 15.132812 108.699219 15.132812 108.660156 15.339844 Z M 107.824219 18.589844 "/>
<path fill="none" stroke-width="0.3985" stroke-linecap="round" stroke-linejoin="round" stroke="rgb(0%, 0%, 0%)" stroke-opacity="1" stroke-miterlimit="10" d="M 56.69409 -0.000546814 L 56.69409 -2.835338 " transform="matrix(2.590579, 0, 0, -2.590579, 14.266216, 0.518115)"/>
<path fill="none" stroke-width="0.3985" stroke-linecap="round" stroke-linejoin="round" stroke="rgb(0%, 0%, 0%)" stroke-opacity="1" stroke-miterlimit="10" d="M 70.868046 -0.000546814 L 70.868046 -2.835338 " transform="matrix(2.590579, 0, 0, -2.590579, 14.266216, 0.518115)"/>
<g clip-path="url(#clip-3)">
<path fill="none" stroke-width="0.3985" stroke-linecap="round" stroke-linejoin="round" stroke="rgb(0%, 0%, 0%)" stroke-opacity="1" stroke-miterlimit="10" d="M 63.778052 -11.339712 L 63.778052 -14.174503 " transform="matrix(2.590579, 0, 0, -2.590579, 14.266216, 0.518115)"/>
</g>
<path fill-rule="nonzero" fill="rgb(100%, 80%, 80%)" fill-opacity="1" d="M 152.699219 7.863281 L 206.292969 7.863281 C 207.707031 7.863281 208.863281 9.019531 208.863281 10.4375 L 208.863281 27.3125 C 208.863281 28.738281 207.707031 29.894531 206.292969 29.894531 L 152.699219 29.894531 C 151.269531 29.894531 150.125 28.738281 150.125 27.3125 L 150.125 10.4375 C 150.125 9.019531 151.269531 7.863281 152.699219 7.863281 Z M 152.699219 7.863281 "/>
<g clip-path="url(#clip-4)">
<path fill="none" stroke-width="0.3985" stroke-linecap="round" stroke-linejoin="round" stroke="rgb(0%, 0%, 0%)" stroke-opacity="1" stroke-miterlimit="10" d="M 53.437096 -2.835338 L 74.125041 -2.835338 C 74.670889 -2.835338 75.117218 -3.281667 75.117218 -3.829023 L 75.117218 -10.343011 C 75.117218 -10.893383 74.670889 -11.339712 74.125041 -11.339712 L 53.437096 -11.339712 C 52.885216 -11.339712 52.443411 -10.893383 52.443411 -10.343011 L 52.443411 -3.829023 C 52.443411 -3.281667 52.885216 -2.835338 53.437096 -2.835338 Z M 53.437096 -2.835338 " transform="matrix(2.590579, 0, 0, -2.590579, 14.266216, 0.518115)"/>
</g>
<path fill-rule="nonzero" fill="rgb(0%, 0%, 0%)" fill-opacity="1" d="M 179.117188 13.148438 C 179.117188 13.109375 179.203125 12.859375 179.203125 12.859375 C 179.203125 12.773438 179.117188 12.609375 178.910156 12.609375 C 178.535156 12.609375 177.035156 12.734375 176.578125 12.773438 C 176.453125 12.816406 176.203125 12.816406 176.203125 13.191406 C 176.203125 13.441406 176.453125 13.441406 176.660156 13.441406 C 177.535156 13.441406 177.535156 13.566406 177.535156 13.734375 C 177.535156 13.859375 177.492188 13.941406 177.453125 14.109375 L 174.910156 24.359375 C 174.828125 24.691406 174.828125 24.734375 174.828125 24.734375 C 174.828125 25.023438 175.035156 25.316406 175.410156 25.316406 C 175.617188 25.316406 175.953125 25.234375 176.160156 24.859375 C 176.203125 24.734375 176.367188 24.109375 176.453125 23.734375 L 176.867188 22.109375 C 176.953125 21.859375 177.117188 21.148438 177.160156 20.898438 C 177.367188 20.191406 177.367188 20.191406 177.703125 19.609375 C 178.285156 18.691406 179.203125 17.691406 180.617188 17.691406 C 181.617188 17.691406 181.660156 18.523438 181.660156 18.941406 C 181.660156 20.023438 180.910156 22.023438 180.617188 22.816406 C 180.410156 23.316406 180.328125 23.484375 180.328125 23.773438 C 180.328125 24.734375 181.117188 25.316406 182.078125 25.316406 C 183.867188 25.316406 184.660156 22.816406 184.660156 22.566406 C 184.660156 22.316406 184.410156 22.316406 184.367188 22.316406 C 184.117188 22.316406 184.117188 22.441406 184.035156 22.648438 C 183.617188 24.066406 182.828125 24.816406 182.117188 24.816406 C 181.742188 24.816406 181.660156 24.566406 181.660156 24.191406 C 181.660156 23.773438 181.742188 23.523438 182.078125 22.734375 C 182.285156 22.148438 183.035156 20.234375 183.035156 19.234375 C 183.035156 18.941406 183.035156 18.191406 182.367188 17.648438 C 182.078125 17.441406 181.535156 17.191406 180.703125 17.191406 C 179.367188 17.191406 178.410156 17.898438 177.742188 18.691406 Z M 179.117188 13.148438 "/>
</svg>
