<?xml version="1.0" encoding="UTF-8"?>
<svg xmlns="http://www.w3.org/2000/svg" xmlns:xlink="http://www.w3.org/1999/xlink" width="61.536001" height="38.858665" viewBox="0 0 61.536001 38.858665">
<defs>
<clipPath id="clip-0">
<path clip-rule="nonzero" d="M 10.667969 0.199219 L 12 0.199219 L 12 9 L 10.667969 9 Z M 10.667969 0.199219 "/>
</clipPath>
<clipPath id="clip-1">
<path clip-rule="nonzero" d="M 47 0.199219 L 49 0.199219 L 49 9 L 47 9 Z M 47 0.199219 "/>
</clipPath>
<clipPath id="clip-2">
<path clip-rule="nonzero" d="M 29 29 L 31 29 L 31 37.5625 L 29 37.5625 Z M 29 29 "/>
</clipPath>
<clipPath id="clip-3">
<path clip-rule="nonzero" d="M 0 7 L 59.167969 7 L 59.167969 31 L 0 31 Z M 0 7 "/>
</clipPath>
</defs>
<g clip-path="url(#clip-0)">
<path fill="none" stroke-width="0.3985" stroke-linecap="round" stroke-linejoin="round" stroke="rgb(0%, 0%, 0%)" stroke-opacity="1" stroke-miterlimit="10" d="M 0.00218557 0.00198989 L 0.00218557 -2.834764 " transform="matrix(2.564, 0, 0, -2.564, 11.412365, 0.712133)"/>
</g>
<g clip-path="url(#clip-1)">
<path fill="none" stroke-width="0.3985" stroke-linecap="round" stroke-linejoin="round" stroke="rgb(0%, 0%, 0%)" stroke-opacity="1" stroke-miterlimit="10" d="M 14.172245 0.00198989 L 14.172245 -2.834764 " transform="matrix(2.564, 0, 0, -2.564, 11.412365, 0.712133)"/>
</g>
<g clip-path="url(#clip-2)">
<path fill="none" stroke-width="0.3985" stroke-linecap="round" stroke-linejoin="round" stroke="rgb(0%, 0%, 0%)" stroke-opacity="1" stroke-miterlimit="10" d="M 7.086453 -11.337409 L 7.086453 -14.17264 " transform="matrix(2.564, 0, 0, -2.564, 11.412365, 0.712133)"/>
</g>
<path fill-rule="nonzero" fill="rgb(74.901961%, 74.901961%, 74.901961%)" fill-opacity="1" d="M 3.0625 7.980469 L 56.105469 7.980469 C 57.511719 7.980469 58.65625 9.125 58.65625 10.53125 L 58.65625 27.230469 C 58.65625 28.644531 57.511719 29.78125 56.105469 29.78125 L 3.0625 29.78125 C 1.65625 29.78125 0.511719 28.644531 0.511719 27.230469 L 0.511719 10.53125 C 0.511719 9.125 1.65625 7.980469 3.0625 7.980469 Z M 3.0625 7.980469 "/>
<g clip-path="url(#clip-3)">
<path fill="none" stroke-width="0.3985" stroke-linecap="round" stroke-linejoin="round" stroke="rgb(0%, 0%, 0%)" stroke-opacity="1" stroke-miterlimit="10" d="M -3.256578 -2.834764 L 17.431008 -2.834764 C 17.979467 -2.834764 18.425852 -3.281149 18.425852 -3.829609 L 18.425852 -10.342565 C 18.425852 -10.894071 17.979467 -11.337409 17.431008 -11.337409 L -3.256578 -11.337409 C -3.805037 -11.337409 -4.251422 -10.894071 -4.251422 -10.342565 L -4.251422 -3.829609 C -4.251422 -3.281149 -3.805037 -2.834764 -3.256578 -2.834764 Z M -3.256578 -2.834764 " transform="matrix(2.564, 0, 0, -2.564, 11.412365, 0.712133)"/>
</g>
<path fill-rule="nonzero" fill="rgb(0%, 0%, 0%)" fill-opacity="1" d="M 30.894531 16.3125 L 32.644531 16.3125 C 32.976562 16.3125 33.226562 16.3125 33.226562 15.894531 C 33.226562 15.644531 32.976562 15.644531 32.683594 15.644531 L 31.019531 15.644531 C 31.394531 13.394531 31.558594 12.5625 31.683594 12.019531 C 31.769531 11.644531 32.183594 11.269531 32.601562 11.269531 C 32.644531 11.269531 33.101562 11.269531 33.433594 11.476562 C 32.726562 11.726562 32.683594 12.351562 32.683594 12.476562 C 32.683594 12.851562 32.976562 13.144531 33.394531 13.144531 C 33.851562 13.144531 34.394531 12.726562 34.394531 12.019531 C 34.394531 11.226562 33.519531 10.769531 32.601562 10.769531 C 31.808594 10.769531 30.933594 11.226562 30.476562 12.101562 C 30.101562 12.769531 29.976562 13.5625 29.601562 15.644531 L 28.183594 15.644531 C 27.808594 15.644531 27.601562 15.644531 27.601562 16.0625 C 27.601562 16.3125 27.808594 16.3125 28.144531 16.3125 L 29.476562 16.3125 C 29.433594 16.394531 28.308594 22.851562 27.894531 24.726562 C 27.808594 25.144531 27.519531 26.519531 26.644531 26.519531 C 26.644531 26.519531 26.183594 26.519531 25.851562 26.269531 C 26.601562 26.0625 26.644531 25.394531 26.644531 25.3125 C 26.644531 24.894531 26.351562 24.644531 25.933594 24.644531 C 25.433594 24.644531 24.894531 25.0625 24.894531 25.726562 C 24.894531 26.519531 25.726562 27.019531 26.644531 27.019531 C 27.769531 27.019531 28.558594 25.8125 28.769531 25.4375 C 29.433594 24.226562 29.851562 22.019531 29.894531 21.8125 Z M 30.894531 16.3125 "/>
</svg>
