<?xml version="1.0" encoding="UTF-8" standalone="no"?>
<svg
   xmlns:dc="http://purl.org/dc/elements/1.1/"
   xmlns:cc="http://creativecommons.org/ns#"
   xmlns:rdf="http://www.w3.org/1999/02/22-rdf-syntax-ns#"
   xmlns:svg="http://www.w3.org/2000/svg"
   xmlns="http://www.w3.org/2000/svg"
   xmlns:sodipodi="http://sodipodi.sourceforge.net/DTD/sodipodi-0.dtd"
   xmlns:inkscape="http://www.inkscape.org/namespaces/inkscape"
   width="28.745pt"
   height="28.745pt"
   viewBox="0 0 28.745 28.745"
   version="1.2"
   id="svg61"
   sodipodi:docname="frobl.pdf">
  <metadata
     id="metadata65">
    <rdf:RDF>
      <cc:Work
         rdf:about="">
        <dc:format>image/svg+xml</dc:format>
        <dc:type
           rdf:resource="http://purl.org/dc/dcmitype/StillImage" />
      </cc:Work>
    </rdf:RDF>
  </metadata>
  <sodipodi:namedview
     pagecolor="#ffffff"
     bordercolor="#666666"
     borderopacity="1"
     objecttolerance="10"
     gridtolerance="10"
     guidetolerance="10"
     inkscape:pageopacity="0"
     inkscape:pageshadow="2"
     inkscape:window-width="640"
     inkscape:window-height="480"
     id="namedview63" />
  <defs
     id="defs20">
    <clipPath
       id="clip1">
      <path
         d="M 28 10 L 28.746094 10 L 28.746094 15 L 28 15 Z M 28 10 "
         id="path2" />
    </clipPath>
    <clipPath
       id="clip2">
      <path
         d="M 14 3 L 28.746094 3 L 28.746094 11 L 14 11 Z M 14 3 "
         id="path5" />
    </clipPath>
    <clipPath
       id="clip3">
      <path
         d="M 14 3 L 28.746094 3 L 28.746094 12 L 14 12 Z M 14 3 "
         id="path8" />
    </clipPath>
    <clipPath
       id="clip4">
      <path
         d="M 7 24 L 8 24 L 8 28.746094 L 7 28.746094 Z M 7 24 "
         id="path11" />
    </clipPath>
    <clipPath
       id="clip5">
      <path
         d="M 28 14 L 28.746094 14 L 28.746094 22 L 28 22 Z M 28 14 "
         id="path14" />
    </clipPath>
    <clipPath
       id="clip6">
      <path
         d="M 28 21 L 28.746094 21 L 28.746094 28.746094 L 28 28.746094 Z M 28 21 "
         id="path17" />
    </clipPath>
  </defs>
  <g
     id="surface2">
    <path
       style="fill:none;stroke-width:0.3985;stroke-linecap:round;stroke-linejoin:round;stroke:rgb(0%,0%,0%);stroke-opacity:1;stroke-miterlimit:10;"
       d="M 0.00021875 -0.00021875 L 0.00021875 -7.086156 "
       transform="matrix(1,0,0,-1,0.199,0.199)"
       id="path22" />
    <path
       style="fill:none;stroke-width:0.3985;stroke-linecap:round;stroke-linejoin:round;stroke:rgb(0%,0%,0%);stroke-opacity:1;stroke-miterlimit:10;"
       d="M 0.00021875 -7.086156 L 0.00021875 -14.172094 "
       transform="matrix(1,0,0,-1,0.199,0.199)"
       id="path24" />
    <path
       style="fill:none;stroke-width:0.3985;stroke-linecap:round;stroke-linejoin:round;stroke:rgb(0%,0%,0%);stroke-opacity:1;stroke-miterlimit:10;"
       d="M 21.261937 -0.00021875 L 21.261937 -3.543188 "
       transform="matrix(1,0,0,-1,0.199,0.199)"
       id="path26" />
    <path
       style="fill:none;stroke-width:0.3985;stroke-linecap:round;stroke-linejoin:round;stroke:rgb(0%,0%,0%);stroke-opacity:1;stroke-miterlimit:10;"
       d="M 14.172094 -10.629125 L 14.172094 -14.172094 "
       transform="matrix(1,0,0,-1,0.199,0.199)"
       id="path28" />
    <g
       clip-path="url(#clip1)"
       clip-rule="nonzero"
       id="g32">
      <path
         style="fill:none;stroke-width:0.3985;stroke-linecap:round;stroke-linejoin:round;stroke:rgb(0%,0%,0%);stroke-opacity:1;stroke-miterlimit:10;"
         d="M 28.347875 -10.629125 L 28.347875 -14.172094 "
         transform="matrix(1,0,0,-1,0.199,0.199)"
         id="path30" />
    </g>
    <g
       clip-path="url(#clip2)"
       clip-rule="nonzero"
       id="g36">
      <path
         style=" stroke:none;fill-rule:nonzero;fill:rgb(100%,100%,100%);fill-opacity:1;"
         d="M 14.371094 10.828125 L 28.546875 10.828125 L 21.460938 3.742188 Z M 14.371094 10.828125 "
         id="path34" />
    </g>
    <g
       clip-path="url(#clip3)"
       clip-rule="nonzero"
       id="g40">
      <path
         style="fill:none;stroke-width:0.3985;stroke-linecap:round;stroke-linejoin:round;stroke:rgb(0%,0%,0%);stroke-opacity:1;stroke-miterlimit:10;"
         d="M 14.172094 -10.629125 L 28.347875 -10.629125 L 21.261937 -3.543188 Z M 14.172094 -10.629125 "
         transform="matrix(1,0,0,-1,0.199,0.199)"
         id="path38" />
    </g>
    <path
       style="fill:none;stroke-width:0.3985;stroke-linecap:round;stroke-linejoin:round;stroke:rgb(0%,0%,0%);stroke-opacity:1;stroke-miterlimit:10;"
       d="M 0.00021875 -14.172094 L 0.00021875 -17.715063 "
       transform="matrix(1,0,0,-1,0.199,0.199)"
       id="path42" />
    <path
       style="fill:none;stroke-width:0.3985;stroke-linecap:round;stroke-linejoin:round;stroke:rgb(0%,0%,0%);stroke-opacity:1;stroke-miterlimit:10;"
       d="M 14.172094 -14.172094 L 14.172094 -17.715063 "
       transform="matrix(1,0,0,-1,0.199,0.199)"
       id="path44" />
    <g
       clip-path="url(#clip4)"
       clip-rule="nonzero"
       id="g48">
      <path
         style="fill:none;stroke-width:0.3985;stroke-linecap:round;stroke-linejoin:round;stroke:rgb(0%,0%,0%);stroke-opacity:1;stroke-miterlimit:10;"
         d="M 7.086156 -24.804906 L 7.086156 -28.347875 "
         transform="matrix(1,0,0,-1,0.199,0.199)"
         id="path46" />
    </g>
    <path
       style="fill-rule:nonzero;fill:rgb(100%,100%,100%);fill-opacity:1;stroke-width:0.3985;stroke-linecap:round;stroke-linejoin:round;stroke:rgb(0%,0%,0%);stroke-opacity:1;stroke-miterlimit:10;"
       d="M 0.00021875 -17.715063 L 14.172094 -17.715063 L 7.086156 -24.804906 Z M 0.00021875 -17.715063 "
       transform="matrix(1,0,0,-1,0.199,0.199)"
       id="path50" />
    <g
       clip-path="url(#clip5)"
       clip-rule="nonzero"
       id="g54">
      <path
         style="fill:none;stroke-width:0.3985;stroke-linecap:round;stroke-linejoin:round;stroke:rgb(0%,0%,0%);stroke-opacity:1;stroke-miterlimit:10;"
         d="M 28.347875 -14.172094 L 28.347875 -21.261938 "
         transform="matrix(1,0,0,-1,0.199,0.199)"
         id="path52" />
    </g>
    <g
       clip-path="url(#clip6)"
       clip-rule="nonzero"
       id="g58">
      <path
         style="fill:none;stroke-width:0.3985;stroke-linecap:round;stroke-linejoin:round;stroke:rgb(0%,0%,0%);stroke-opacity:1;stroke-miterlimit:10;"
         d="M 28.347875 -21.261938 L 28.347875 -28.347875 "
         transform="matrix(1,0,0,-1,0.199,0.199)"
         id="path56" />
    </g>
  </g>
</svg>
