<?xml version="1.0" encoding="UTF-8" standalone="no"?>
<svg
   xmlns:dc="http://purl.org/dc/elements/1.1/"
   xmlns:cc="http://creativecommons.org/ns#"
   xmlns:rdf="http://www.w3.org/1999/02/22-rdf-syntax-ns#"
   xmlns:svg="http://www.w3.org/2000/svg"
   xmlns="http://www.w3.org/2000/svg"
   xmlns:sodipodi="http://sodipodi.sourceforge.net/DTD/sodipodi-0.dtd"
   xmlns:inkscape="http://www.inkscape.org/namespaces/inkscape"
   width="57.091pt"
   height="57.091pt"
   viewBox="0 0 57.091 57.091"
   version="1.2"
   id="svg56"
   sodipodi:docname="frobl.pdf">
  <metadata
     id="metadata60">
    <rdf:RDF>
      <cc:Work
         rdf:about="">
        <dc:format>image/svg+xml</dc:format>
        <dc:type
           rdf:resource="http://purl.org/dc/dcmitype/StillImage" />
      </cc:Work>
    </rdf:RDF>
  </metadata>
  <sodipodi:namedview
     pagecolor="#ffffff"
     bordercolor="#666666"
     borderopacity="1"
     objecttolerance="10"
     gridtolerance="10"
     guidetolerance="10"
     inkscape:pageopacity="0"
     inkscape:pageshadow="2"
     inkscape:window-width="640"
     inkscape:window-height="480"
     id="namedview58" />
  <defs
     id="defs17">
    <clipPath
       id="clip1">
      <path
         d="M 56 21 L 57.089844 21 L 57.089844 29 L 56 29 Z M 56 21 "
         id="path2" />
    </clipPath>
    <clipPath
       id="clip2">
      <path
         d="M 28 7 L 57.089844 7 L 57.089844 22 L 28 22 Z M 28 7 "
         id="path5" />
    </clipPath>
    <clipPath
       id="clip3">
      <path
         d="M 14 49 L 15 49 L 15 57.089844 L 14 57.089844 Z M 14 49 "
         id="path8" />
    </clipPath>
    <clipPath
       id="clip4">
      <path
         d="M 56 28 L 57.089844 28 L 57.089844 43 L 56 43 Z M 56 28 "
         id="path11" />
    </clipPath>
    <clipPath
       id="clip5">
      <path
         d="M 56 42 L 57.089844 42 L 57.089844 57.089844 L 56 57.089844 Z M 56 42 "
         id="path14" />
    </clipPath>
  </defs>
  <g
     id="surface2">
    <path
       style="fill:none;stroke-width:0.3985;stroke-linecap:round;stroke-linejoin:round;stroke:rgb(0%,0%,0%);stroke-opacity:1;stroke-miterlimit:10;"
       d="M 0.00021875 -0.00021875 L 0.00021875 -14.172094 "
       transform="matrix(1,0,0,-1,0.199,0.199)"
       id="path19" />
    <path
       style="fill:none;stroke-width:0.3985;stroke-linecap:round;stroke-linejoin:round;stroke:rgb(0%,0%,0%);stroke-opacity:1;stroke-miterlimit:10;"
       d="M 0.00021875 -14.172094 L 0.00021875 -28.347875 "
       transform="matrix(1,0,0,-1,0.199,0.199)"
       id="path21" />
    <path
       style="fill:none;stroke-width:0.3985;stroke-linecap:round;stroke-linejoin:round;stroke:rgb(0%,0%,0%);stroke-opacity:1;stroke-miterlimit:10;"
       d="M 42.51975 -0.00021875 L 42.51975 -7.086156 "
       transform="matrix(1,0,0,-1,0.199,0.199)"
       id="path23" />
    <path
       style="fill:none;stroke-width:0.3985;stroke-linecap:round;stroke-linejoin:round;stroke:rgb(0%,0%,0%);stroke-opacity:1;stroke-miterlimit:10;"
       d="M 28.347875 -21.261938 L 28.347875 -28.347875 "
       transform="matrix(1,0,0,-1,0.199,0.199)"
       id="path25" />
    <g
       clip-path="url(#clip1)"
       clip-rule="nonzero"
       id="g29">
      <path
         style="fill:none;stroke-width:0.3985;stroke-linecap:round;stroke-linejoin:round;stroke:rgb(0%,0%,0%);stroke-opacity:1;stroke-miterlimit:10;"
         d="M 56.695531 -21.261938 L 56.695531 -28.347875 "
         transform="matrix(1,0,0,-1,0.199,0.199)"
         id="path27" />
    </g>
    <path
       style=" stroke:none;fill-rule:nonzero;fill:rgb(100%,100%,100%);fill-opacity:1;"
       d="M 28.546875 21.460938 L 56.894531 21.460938 L 42.71875 7.285156 Z M 28.546875 21.460938 "
       id="path31" />
    <g
       clip-path="url(#clip2)"
       clip-rule="nonzero"
       id="g35">
      <path
         style="fill:none;stroke-width:0.3985;stroke-linecap:round;stroke-linejoin:round;stroke:rgb(0%,0%,0%);stroke-opacity:1;stroke-miterlimit:10;"
         d="M 28.347875 -21.261938 L 56.695531 -21.261938 L 42.51975 -7.086156 Z M 28.347875 -21.261938 "
         transform="matrix(1,0,0,-1,0.199,0.199)"
         id="path33" />
    </g>
    <path
       style="fill:none;stroke-width:0.3985;stroke-linecap:round;stroke-linejoin:round;stroke:rgb(0%,0%,0%);stroke-opacity:1;stroke-miterlimit:10;"
       d="M 0.00021875 -28.347875 L 0.00021875 -35.433813 "
       transform="matrix(1,0,0,-1,0.199,0.199)"
       id="path37" />
    <path
       style="fill:none;stroke-width:0.3985;stroke-linecap:round;stroke-linejoin:round;stroke:rgb(0%,0%,0%);stroke-opacity:1;stroke-miterlimit:10;"
       d="M 28.347875 -28.347875 L 28.347875 -35.433813 "
       transform="matrix(1,0,0,-1,0.199,0.199)"
       id="path39" />
    <g
       clip-path="url(#clip3)"
       clip-rule="nonzero"
       id="g43">
      <path
         style="fill:none;stroke-width:0.3985;stroke-linecap:round;stroke-linejoin:round;stroke:rgb(0%,0%,0%);stroke-opacity:1;stroke-miterlimit:10;"
         d="M 14.172094 -49.605688 L 14.172094 -56.695531 "
         transform="matrix(1,0,0,-1,0.199,0.199)"
         id="path41" />
    </g>
    <path
       style="fill-rule:nonzero;fill:rgb(100%,100%,100%);fill-opacity:1;stroke-width:0.3985;stroke-linecap:round;stroke-linejoin:round;stroke:rgb(0%,0%,0%);stroke-opacity:1;stroke-miterlimit:10;"
       d="M 0.00021875 -35.433813 L 28.347875 -35.433813 L 14.172094 -49.605688 Z M 0.00021875 -35.433813 "
       transform="matrix(1,0,0,-1,0.199,0.199)"
       id="path45" />
    <g
       clip-path="url(#clip4)"
       clip-rule="nonzero"
       id="g49">
      <path
         style="fill:none;stroke-width:0.3985;stroke-linecap:round;stroke-linejoin:round;stroke:rgb(0%,0%,0%);stroke-opacity:1;stroke-miterlimit:10;"
         d="M 56.695531 -28.347875 L 56.695531 -42.51975 "
         transform="matrix(1,0,0,-1,0.199,0.199)"
         id="path47" />
    </g>
    <g
       clip-path="url(#clip5)"
       clip-rule="nonzero"
       id="g53">
      <path
         style="fill:none;stroke-width:0.3985;stroke-linecap:round;stroke-linejoin:round;stroke:rgb(0%,0%,0%);stroke-opacity:1;stroke-miterlimit:10;"
         d="M 56.695531 -42.51975 L 56.695531 -56.695531 "
         transform="matrix(1,0,0,-1,0.199,0.199)"
         id="path51" />
    </g>
  </g>
</svg>
