<?xml version="1.0" encoding="UTF-8" standalone="no"?>
<svg
   xmlns:dc="http://purl.org/dc/elements/1.1/"
   xmlns:cc="http://creativecommons.org/ns#"
   xmlns:rdf="http://www.w3.org/1999/02/22-rdf-syntax-ns#"
   xmlns:svg="http://www.w3.org/2000/svg"
   xmlns="http://www.w3.org/2000/svg"
   xmlns:sodipodi="http://sodipodi.sourceforge.net/DTD/sodipodi-0.dtd"
   xmlns:inkscape="http://www.inkscape.org/namespaces/inkscape"
   width="42.918pt"
   height="42.918pt"
   viewBox="0 0 42.918 42.918"
   version="1.2"
   id="svg63"
   sodipodi:docname="rcomb4.pdf">
  <metadata
     id="metadata67">
    <rdf:RDF>
      <cc:Work
         rdf:about="">
        <dc:format>image/svg+xml</dc:format>
        <dc:type
           rdf:resource="http://purl.org/dc/dcmitype/StillImage" />
      </cc:Work>
    </rdf:RDF>
  </metadata>
  <sodipodi:namedview
     pagecolor="#ffffff"
     bordercolor="#666666"
     borderopacity="1"
     objecttolerance="10"
     gridtolerance="10"
     guidetolerance="10"
     inkscape:pageopacity="0"
     inkscape:pageshadow="2"
     inkscape:window-width="640"
     inkscape:window-height="480"
     id="namedview65" />
  <defs
     id="defs14">
    <clipPath
       id="clip1">
      <path
         d="M 42 0 L 42.917969 0 L 42.917969 4 L 42 4 Z M 42 0 "
         id="path2" />
    </clipPath>
    <clipPath
       id="clip2">
      <path
         d="M 28 3 L 42.917969 3 L 42.917969 11 L 28 11 Z M 28 3 "
         id="path5" />
    </clipPath>
    <clipPath
       id="clip3">
      <path
         d="M 28 3 L 42.917969 3 L 42.917969 12 L 28 12 Z M 28 3 "
         id="path8" />
    </clipPath>
    <clipPath
       id="clip4">
      <path
         d="M 12 38 L 13 38 L 13 42.917969 L 12 42.917969 Z M 12 38 "
         id="path11" />
    </clipPath>
  </defs>
  <g
     id="surface2">
    <path
       style="fill:none;stroke-width:0.3985;stroke-linecap:round;stroke-linejoin:round;stroke:rgb(0%,0%,0%);stroke-opacity:1;stroke-miterlimit:10;"
       d="M 0.00021875 -0.00021875 L 0.00021875 -7.086156 "
       transform="matrix(1,0,0,-1,0.199,0.199)"
       id="path16" />
    <path
       style="fill:none;stroke-width:0.3985;stroke-linecap:round;stroke-linejoin:round;stroke:rgb(0%,0%,0%);stroke-opacity:1;stroke-miterlimit:10;"
       d="M 0.00021875 -7.086156 L 0.00021875 -14.172094 "
       transform="matrix(1,0,0,-1,0.199,0.199)"
       id="path18" />
    <path
       style="fill:none;stroke-width:0.3985;stroke-linecap:round;stroke-linejoin:round;stroke:rgb(0%,0%,0%);stroke-opacity:1;stroke-miterlimit:10;"
       d="M 14.172094 -0.00021875 L 14.172094 -7.086156 "
       transform="matrix(1,0,0,-1,0.199,0.199)"
       id="path20" />
    <path
       style="fill:none;stroke-width:0.3985;stroke-linecap:round;stroke-linejoin:round;stroke:rgb(0%,0%,0%);stroke-opacity:1;stroke-miterlimit:10;"
       d="M 14.172094 -7.086156 L 14.172094 -14.172094 "
       transform="matrix(1,0,0,-1,0.199,0.199)"
       id="path22" />
    <path
       style="fill:none;stroke-width:0.3985;stroke-linecap:round;stroke-linejoin:round;stroke:rgb(0%,0%,0%);stroke-opacity:1;stroke-miterlimit:10;"
       d="M 28.347875 -0.00021875 L 28.347875 -3.543188 "
       transform="matrix(1,0,0,-1,0.199,0.199)"
       id="path24" />
    <g
       clip-path="url(#clip1)"
       clip-rule="nonzero"
       id="g28">
      <path
         style="fill:none;stroke-width:0.3985;stroke-linecap:round;stroke-linejoin:round;stroke:rgb(0%,0%,0%);stroke-opacity:1;stroke-miterlimit:10;"
         d="M 42.51975 -0.00021875 L 42.51975 -3.543188 "
         transform="matrix(1,0,0,-1,0.199,0.199)"
         id="path26" />
    </g>
    <path
       style="fill:none;stroke-width:0.3985;stroke-linecap:round;stroke-linejoin:round;stroke:rgb(0%,0%,0%);stroke-opacity:1;stroke-miterlimit:10;"
       d="M 35.433813 -10.629125 L 35.433813 -14.172094 "
       transform="matrix(1,0,0,-1,0.199,0.199)"
       id="path30" />
    <g
       clip-path="url(#clip2)"
       clip-rule="nonzero"
       id="g34">
      <path
         style=" stroke:none;fill-rule:nonzero;fill:rgb(100%,100%,100%);fill-opacity:1;"
         d="M 28.546875 3.742188 L 42.71875 3.742188 L 35.632812 10.828125 Z M 28.546875 3.742188 "
         id="path32" />
    </g>
    <g
       clip-path="url(#clip3)"
       clip-rule="nonzero"
       id="g38">
      <path
         style="fill:none;stroke-width:0.3985;stroke-linecap:round;stroke-linejoin:round;stroke:rgb(0%,0%,0%);stroke-opacity:1;stroke-miterlimit:10;"
         d="M 28.347875 -3.543188 L 42.51975 -3.543188 L 35.433813 -10.629125 Z M 28.347875 -3.543188 "
         transform="matrix(1,0,0,-1,0.199,0.199)"
         id="path36" />
    </g>
    <path
       style="fill:none;stroke-width:0.3985;stroke-linecap:round;stroke-linejoin:round;stroke:rgb(0%,0%,0%);stroke-opacity:1;stroke-miterlimit:10;"
       d="M 0.00021875 -14.172094 L 0.00021875 -21.261938 "
       transform="matrix(1,0,0,-1,0.199,0.199)"
       id="path40" />
    <path
       style="fill:none;stroke-width:0.3985;stroke-linecap:round;stroke-linejoin:round;stroke:rgb(0%,0%,0%);stroke-opacity:1;stroke-miterlimit:10;"
       d="M 0.00021875 -21.261938 L 0.00021875 -28.347875 "
       transform="matrix(1,0,0,-1,0.199,0.199)"
       id="path42" />
    <path
       style="fill:none;stroke-width:0.3985;stroke-linecap:round;stroke-linejoin:round;stroke:rgb(0%,0%,0%);stroke-opacity:1;stroke-miterlimit:10;"
       d="M 14.172094 -14.172094 L 14.172094 -17.715063 "
       transform="matrix(1,0,0,-1,0.199,0.199)"
       id="path44" />
    <path
       style="fill:none;stroke-width:0.3985;stroke-linecap:round;stroke-linejoin:round;stroke:rgb(0%,0%,0%);stroke-opacity:1;stroke-miterlimit:10;"
       d="M 35.433813 -14.172094 L 35.433813 -17.715063 "
       transform="matrix(1,0,0,-1,0.199,0.199)"
       id="path46" />
    <path
       style="fill:none;stroke-width:0.3985;stroke-linecap:round;stroke-linejoin:round;stroke:rgb(0%,0%,0%);stroke-opacity:1;stroke-miterlimit:10;"
       d="M 24.804906 -24.804906 L 24.804906 -28.347875 "
       transform="matrix(1,0,0,-1,0.199,0.199)"
       id="path48" />
    <path
       style="fill-rule:nonzero;fill:rgb(100%,100%,100%);fill-opacity:1;stroke-width:0.3985;stroke-linecap:round;stroke-linejoin:round;stroke:rgb(0%,0%,0%);stroke-opacity:1;stroke-miterlimit:10;"
       d="M 14.172094 -17.715063 L 35.433813 -17.715063 L 24.804906 -24.804906 Z M 14.172094 -17.715063 "
       transform="matrix(1,0,0,-1,0.199,0.199)"
       id="path50" />
    <path
       style="fill:none;stroke-width:0.3985;stroke-linecap:round;stroke-linejoin:round;stroke:rgb(0%,0%,0%);stroke-opacity:1;stroke-miterlimit:10;"
       d="M 0.00021875 -28.347875 L 0.00021875 -31.890844 "
       transform="matrix(1,0,0,-1,0.199,0.199)"
       id="path52" />
    <path
       style="fill:none;stroke-width:0.3985;stroke-linecap:round;stroke-linejoin:round;stroke:rgb(0%,0%,0%);stroke-opacity:1;stroke-miterlimit:10;"
       d="M 24.804906 -28.347875 L 24.804906 -31.890844 "
       transform="matrix(1,0,0,-1,0.199,0.199)"
       id="path54" />
    <g
       clip-path="url(#clip4)"
       clip-rule="nonzero"
       id="g58">
      <path
         style="fill:none;stroke-width:0.3985;stroke-linecap:round;stroke-linejoin:round;stroke:rgb(0%,0%,0%);stroke-opacity:1;stroke-miterlimit:10;"
         d="M 12.402563 -38.976781 L 12.402563 -42.51975 "
         transform="matrix(1,0,0,-1,0.199,0.199)"
         id="path56" />
    </g>
    <path
       style="fill-rule:nonzero;fill:rgb(100%,100%,100%);fill-opacity:1;stroke-width:0.3985;stroke-linecap:round;stroke-linejoin:round;stroke:rgb(0%,0%,0%);stroke-opacity:1;stroke-miterlimit:10;"
       d="M 0.00021875 -31.890844 L 24.804906 -31.890844 L 12.402563 -38.976781 Z M 0.00021875 -31.890844 "
       transform="matrix(1,0,0,-1,0.199,0.199)"
       id="path60" />
  </g>
</svg>
