<?xml version="1.0" encoding="UTF-8" standalone="no"?>
<svg
   xmlns:dc="http://purl.org/dc/elements/1.1/"
   xmlns:cc="http://creativecommons.org/ns#"
   xmlns:rdf="http://www.w3.org/1999/02/22-rdf-syntax-ns#"
   xmlns:svg="http://www.w3.org/2000/svg"
   xmlns="http://www.w3.org/2000/svg"
   xmlns:sodipodi="http://sodipodi.sourceforge.net/DTD/sodipodi-0.dtd"
   xmlns:inkscape="http://www.inkscape.org/namespaces/inkscape"
   width="85.438pt"
   height="85.438pt"
   viewBox="0 0 85.438 85.438"
   version="1.2"
   id="svg56"
   sodipodi:docname="rcomb4.pdf">
  <metadata
     id="metadata60">
    <rdf:RDF>
      <cc:Work
         rdf:about="">
        <dc:format>image/svg+xml</dc:format>
        <dc:type
           rdf:resource="http://purl.org/dc/dcmitype/StillImage" />
      </cc:Work>
    </rdf:RDF>
  </metadata>
  <sodipodi:namedview
     pagecolor="#ffffff"
     bordercolor="#666666"
     borderopacity="1"
     objecttolerance="10"
     gridtolerance="10"
     guidetolerance="10"
     inkscape:pageopacity="0"
     inkscape:pageshadow="2"
     inkscape:window-width="640"
     inkscape:window-height="480"
     id="namedview58" />
  <defs
     id="defs11">
    <clipPath
       id="clip1">
      <path
         d="M 85 0 L 85.4375 0 L 85.4375 8 L 85 8 Z M 85 0 "
         id="path2" />
    </clipPath>
    <clipPath
       id="clip2">
      <path
         d="M 56 7 L 85.4375 7 L 85.4375 22 L 56 22 Z M 56 7 "
         id="path5" />
    </clipPath>
    <clipPath
       id="clip3">
      <path
         d="M 24 77 L 26 77 L 26 85.4375 L 24 85.4375 Z M 24 77 "
         id="path8" />
    </clipPath>
  </defs>
  <g
     id="surface2">
    <path
       style="fill:none;stroke-width:0.3985;stroke-linecap:round;stroke-linejoin:round;stroke:rgb(0%,0%,0%);stroke-opacity:1;stroke-miterlimit:10;"
       d="M 0.00021875 -0.00021875 L 0.00021875 -14.172094 "
       transform="matrix(1,0,0,-1,0.199,0.199)"
       id="path13" />
    <path
       style="fill:none;stroke-width:0.3985;stroke-linecap:round;stroke-linejoin:round;stroke:rgb(0%,0%,0%);stroke-opacity:1;stroke-miterlimit:10;"
       d="M 0.00021875 -14.172094 L 0.00021875 -28.347875 "
       transform="matrix(1,0,0,-1,0.199,0.199)"
       id="path15" />
    <path
       style="fill:none;stroke-width:0.3985;stroke-linecap:round;stroke-linejoin:round;stroke:rgb(0%,0%,0%);stroke-opacity:1;stroke-miterlimit:10;"
       d="M 28.347875 -0.00021875 L 28.347875 -14.172094 "
       transform="matrix(1,0,0,-1,0.199,0.199)"
       id="path17" />
    <path
       style="fill:none;stroke-width:0.3985;stroke-linecap:round;stroke-linejoin:round;stroke:rgb(0%,0%,0%);stroke-opacity:1;stroke-miterlimit:10;"
       d="M 28.347875 -14.172094 L 28.347875 -28.347875 "
       transform="matrix(1,0,0,-1,0.199,0.199)"
       id="path19" />
    <path
       style="fill:none;stroke-width:0.3985;stroke-linecap:round;stroke-linejoin:round;stroke:rgb(0%,0%,0%);stroke-opacity:1;stroke-miterlimit:10;"
       d="M 56.695531 -0.00021875 L 56.695531 -7.086156 "
       transform="matrix(1,0,0,-1,0.199,0.199)"
       id="path21" />
    <g
       clip-path="url(#clip1)"
       clip-rule="nonzero"
       id="g25">
      <path
         style="fill:none;stroke-width:0.3985;stroke-linecap:round;stroke-linejoin:round;stroke:rgb(0%,0%,0%);stroke-opacity:1;stroke-miterlimit:10;"
         d="M 85.039281 -0.00021875 L 85.039281 -7.086156 "
         transform="matrix(1,0,0,-1,0.199,0.199)"
         id="path23" />
    </g>
    <path
       style="fill:none;stroke-width:0.3985;stroke-linecap:round;stroke-linejoin:round;stroke:rgb(0%,0%,0%);stroke-opacity:1;stroke-miterlimit:10;"
       d="M 70.867406 -21.261938 L 70.867406 -28.347875 "
       transform="matrix(1,0,0,-1,0.199,0.199)"
       id="path27" />
    <g
       clip-path="url(#clip2)"
       clip-rule="nonzero"
       id="g31">
      <path
         style="fill-rule:nonzero;fill:rgb(100%,100%,100%);fill-opacity:1;stroke-width:0.3985;stroke-linecap:round;stroke-linejoin:round;stroke:rgb(0%,0%,0%);stroke-opacity:1;stroke-miterlimit:10;"
         d="M 56.695531 -7.086156 L 85.039281 -7.086156 L 70.867406 -21.261938 Z M 56.695531 -7.086156 "
         transform="matrix(1,0,0,-1,0.199,0.199)"
         id="path29" />
    </g>
    <path
       style="fill:none;stroke-width:0.3985;stroke-linecap:round;stroke-linejoin:round;stroke:rgb(0%,0%,0%);stroke-opacity:1;stroke-miterlimit:10;"
       d="M 0.00021875 -28.347875 L 0.00021875 -42.51975 "
       transform="matrix(1,0,0,-1,0.199,0.199)"
       id="path33" />
    <path
       style="fill:none;stroke-width:0.3985;stroke-linecap:round;stroke-linejoin:round;stroke:rgb(0%,0%,0%);stroke-opacity:1;stroke-miterlimit:10;"
       d="M 0.00021875 -42.51975 L 0.00021875 -56.695531 "
       transform="matrix(1,0,0,-1,0.199,0.199)"
       id="path35" />
    <path
       style="fill:none;stroke-width:0.3985;stroke-linecap:round;stroke-linejoin:round;stroke:rgb(0%,0%,0%);stroke-opacity:1;stroke-miterlimit:10;"
       d="M 28.347875 -28.347875 L 28.347875 -35.433813 "
       transform="matrix(1,0,0,-1,0.199,0.199)"
       id="path37" />
    <path
       style="fill:none;stroke-width:0.3985;stroke-linecap:round;stroke-linejoin:round;stroke:rgb(0%,0%,0%);stroke-opacity:1;stroke-miterlimit:10;"
       d="M 70.867406 -28.347875 L 70.867406 -35.433813 "
       transform="matrix(1,0,0,-1,0.199,0.199)"
       id="path39" />
    <path
       style="fill:none;stroke-width:0.3985;stroke-linecap:round;stroke-linejoin:round;stroke:rgb(0%,0%,0%);stroke-opacity:1;stroke-miterlimit:10;"
       d="M 49.605688 -49.605688 L 49.605688 -56.695531 "
       transform="matrix(1,0,0,-1,0.199,0.199)"
       id="path41" />
    <path
       style="fill-rule:nonzero;fill:rgb(100%,100%,100%);fill-opacity:1;stroke-width:0.3985;stroke-linecap:round;stroke-linejoin:round;stroke:rgb(0%,0%,0%);stroke-opacity:1;stroke-miterlimit:10;"
       d="M 28.347875 -35.433813 L 70.867406 -35.433813 L 49.605688 -49.605688 Z M 28.347875 -35.433813 "
       transform="matrix(1,0,0,-1,0.199,0.199)"
       id="path43" />
    <path
       style="fill:none;stroke-width:0.3985;stroke-linecap:round;stroke-linejoin:round;stroke:rgb(0%,0%,0%);stroke-opacity:1;stroke-miterlimit:10;"
       d="M 0.00021875 -56.695531 L 0.00021875 -63.781469 "
       transform="matrix(1,0,0,-1,0.199,0.199)"
       id="path45" />
    <path
       style="fill:none;stroke-width:0.3985;stroke-linecap:round;stroke-linejoin:round;stroke:rgb(0%,0%,0%);stroke-opacity:1;stroke-miterlimit:10;"
       d="M 49.605688 -56.695531 L 49.605688 -63.781469 "
       transform="matrix(1,0,0,-1,0.199,0.199)"
       id="path47" />
    <g
       clip-path="url(#clip3)"
       clip-rule="nonzero"
       id="g51">
      <path
         style="fill:none;stroke-width:0.3985;stroke-linecap:round;stroke-linejoin:round;stroke:rgb(0%,0%,0%);stroke-opacity:1;stroke-miterlimit:10;"
         d="M 24.804906 -77.953344 L 24.804906 -85.039281 "
         transform="matrix(1,0,0,-1,0.199,0.199)"
         id="path49" />
    </g>
    <path
       style="fill-rule:nonzero;fill:rgb(100%,100%,100%);fill-opacity:1;stroke-width:0.3985;stroke-linecap:round;stroke-linejoin:round;stroke:rgb(0%,0%,0%);stroke-opacity:1;stroke-miterlimit:10;"
       d="M 0.00021875 -63.781469 L 49.605688 -63.781469 L 24.804906 -77.953344 Z M 0.00021875 -63.781469 "
       transform="matrix(1,0,0,-1,0.199,0.199)"
       id="path53" />
  </g>
</svg>
