<?xml version="1.0" encoding="UTF-8" standalone="no"?>
<svg
   xmlns:dc="http://purl.org/dc/elements/1.1/"
   xmlns:cc="http://creativecommons.org/ns#"
   xmlns:rdf="http://www.w3.org/1999/02/22-rdf-syntax-ns#"
   xmlns:svg="http://www.w3.org/2000/svg"
   xmlns="http://www.w3.org/2000/svg"
   xmlns:sodipodi="http://sodipodi.sourceforge.net/DTD/sodipodi-0.dtd"
   xmlns:inkscape="http://www.inkscape.org/namespaces/inkscape"
   width="35.832pt"
   height="14.572pt"
   viewBox="0 0 35.832 14.572"
   version="1.2"
   id="svg39"
   sodipodi:docname="rectangle.pdf">
  <metadata
     id="metadata43">
    <rdf:RDF>
      <cc:Work
         rdf:about="">
        <dc:format>image/svg+xml</dc:format>
        <dc:type
           rdf:resource="http://purl.org/dc/dcmitype/StillImage" />
      </cc:Work>
    </rdf:RDF>
  </metadata>
  <sodipodi:namedview
     pagecolor="#ffffff"
     bordercolor="#666666"
     borderopacity="1"
     objecttolerance="10"
     gridtolerance="10"
     guidetolerance="10"
     inkscape:pageopacity="0"
     inkscape:pageshadow="2"
     inkscape:window-width="640"
     inkscape:window-height="480"
     id="namedview41" />
  <defs
     id="defs14">
    <clipPath
       id="clip1">
      <path
         d="M 3 10 L 4 10 L 4 14.570312 L 3 14.570312 Z M 3 10 "
         id="path2" />
    </clipPath>
    <clipPath
       id="clip2">
      <path
         d="M 17 10 L 19 10 L 19 14.570312 L 17 14.570312 Z M 17 10 "
         id="path5" />
    </clipPath>
    <clipPath
       id="clip3">
      <path
         d="M 0 5 L 35.832031 5 L 35.832031 10 L 0 10 Z M 0 5 "
         id="path8" />
    </clipPath>
    <clipPath
       id="clip4">
      <path
         d="M 0 4 L 35.832031 4 L 35.832031 10 L 0 10 Z M 0 4 "
         id="path11" />
    </clipPath>
  </defs>
  <g
     id="surface2">
    <path
       style="fill:none;stroke-width:0.3985;stroke-linecap:round;stroke-linejoin:round;stroke:rgb(0%,0%,0%);stroke-opacity:1;stroke-miterlimit:10;"
       d="M -0.0008125 0.00078125 L -0.0008125 -3.542188 "
       transform="matrix(1,0,0,-1,3.743,0.2)"
       id="path16" />
    <path
       style="fill:none;stroke-width:0.3985;stroke-linecap:round;stroke-linejoin:round;stroke:rgb(0%,0%,0%);stroke-opacity:1;stroke-miterlimit:10;"
       d="M 14.174969 0.00078125 L 14.174969 -3.542188 "
       transform="matrix(1,0,0,-1,3.743,0.2)"
       id="path18" />
    <path
       style="fill:none;stroke-width:0.3985;stroke-linecap:round;stroke-linejoin:round;stroke:rgb(0%,0%,0%);stroke-opacity:1;stroke-miterlimit:10;"
       d="M 28.346844 0.00078125 L 28.346844 -3.542188 "
       transform="matrix(1,0,0,-1,3.743,0.2)"
       id="path20" />
    <g
       clip-path="url(#clip1)"
       clip-rule="nonzero"
       id="g24">
      <path
         style="fill:none;stroke-width:0.3985;stroke-linecap:round;stroke-linejoin:round;stroke:rgb(0%,0%,0%);stroke-opacity:1;stroke-miterlimit:10;"
         d="M -0.0008125 -10.628125 L -0.0008125 -14.175 "
         transform="matrix(1,0,0,-1,3.743,0.2)"
         id="path22" />
    </g>
    <g
       clip-path="url(#clip2)"
       clip-rule="nonzero"
       id="g28">
      <path
         style="fill:none;stroke-width:0.3985;stroke-linecap:round;stroke-linejoin:round;stroke:rgb(0%,0%,0%);stroke-opacity:1;stroke-miterlimit:10;"
         d="M 14.174969 -10.628125 L 14.174969 -14.175 "
         transform="matrix(1,0,0,-1,3.743,0.2)"
         id="path26" />
    </g>
    <g
       clip-path="url(#clip3)"
       clip-rule="nonzero"
       id="g32">
      <path
         style=" stroke:none;fill-rule:nonzero;fill:rgb(100%,100%,100%);fill-opacity:1;"
         d="M 1.195312 5.160156 L 34.636719 5.160156 C 35.1875 5.160156 35.632812 5.605469 35.632812 6.15625 L 35.632812 8.417969 C 35.632812 8.964844 35.1875 9.414062 34.636719 9.414062 L 1.195312 9.414062 C 0.644531 9.414062 0.199219 8.964844 0.199219 8.417969 L 0.199219 6.15625 C 0.199219 5.605469 0.644531 5.160156 1.195312 5.160156 Z M 1.195312 5.160156 "
         id="path30" />
    </g>
    <g
       clip-path="url(#clip4)"
       clip-rule="nonzero"
       id="g36">
      <path
         style="fill:none;stroke-width:0.3985;stroke-linecap:round;stroke-linejoin:round;stroke:rgb(0%,0%,0%);stroke-opacity:1;stroke-miterlimit:10;"
         d="M -2.547688 -4.960156 L 30.893719 -4.960156 C 31.4445 -4.960156 31.889812 -5.405469 31.889812 -5.95625 L 31.889812 -8.217969 C 31.889812 -8.764844 31.4445 -9.214063 30.893719 -9.214063 L -2.547688 -9.214063 C -3.098469 -9.214063 -3.543781 -8.764844 -3.543781 -8.217969 L -3.543781 -5.95625 C -3.543781 -5.405469 -3.098469 -4.960156 -2.547688 -4.960156 Z M -2.547688 -4.960156 "
         transform="matrix(1,0,0,-1,3.743,0.2)"
         id="path34" />
    </g>
  </g>
</svg>
