<?xml version="1.0" encoding="UTF-8" standalone="no"?>
<svg
   xmlns:dc="http://purl.org/dc/elements/1.1/"
   xmlns:cc="http://creativecommons.org/ns#"
   xmlns:rdf="http://www.w3.org/1999/02/22-rdf-syntax-ns#"
   xmlns:svg="http://www.w3.org/2000/svg"
   xmlns="http://www.w3.org/2000/svg"
   xmlns:sodipodi="http://sodipodi.sourceforge.net/DTD/sodipodi-0.dtd"
   xmlns:inkscape="http://www.inkscape.org/namespaces/inkscape"
   width="35.832pt"
   height="14.572pt"
   viewBox="0 0 35.832 14.572"
   version="1.2"
   id="svg39"
   sodipodi:docname="rectangle.pdf">
  <metadata
     id="metadata43">
    <rdf:RDF>
      <cc:Work
         rdf:about="">
        <dc:format>image/svg+xml</dc:format>
        <dc:type
           rdf:resource="http://purl.org/dc/dcmitype/StillImage" />
      </cc:Work>
    </rdf:RDF>
  </metadata>
  <sodipodi:namedview
     pagecolor="#ffffff"
     bordercolor="#666666"
     borderopacity="1"
     objecttolerance="10"
     gridtolerance="10"
     guidetolerance="10"
     inkscape:pageopacity="0"
     inkscape:pageshadow="2"
     inkscape:window-width="640"
     inkscape:window-height="480"
     id="namedview41" />
  <defs
     id="defs14">
    <clipPath
       id="clip1">
      <path
         d="M 3 10 L 4 10 L 4 14.570312 L 3 14.570312 Z M 3 10 "
         id="path2" />
    </clipPath>
    <clipPath
       id="clip2">
      <path
         d="M 17 10 L 19 10 L 19 14.570312 L 17 14.570312 Z M 17 10 "
         id="path5" />
    </clipPath>
    <clipPath
       id="clip3">
      <path
         d="M 0 3 L 35.832031 3 L 35.832031 11 L 0 11 Z M 0 3 "
         id="path8" />
    </clipPath>
    <clipPath
       id="clip4">
      <path
         d="M 0 3 L 35.832031 3 L 35.832031 12 L 0 12 Z M 0 3 "
         id="path11" />
    </clipPath>
  </defs>
  <g
     id="surface2">
    <path
       style="fill:none;stroke-width:0.3985;stroke-linecap:round;stroke-linejoin:round;stroke:rgb(0%,0%,0%);stroke-opacity:1;stroke-miterlimit:10;"
       d="M -0.0008125 0.00078125 L -0.0008125 -3.542188 "
       transform="matrix(1,0,0,-1,3.743,0.2)"
       id="path16" />
    <path
       style="fill:none;stroke-width:0.3985;stroke-linecap:round;stroke-linejoin:round;stroke:rgb(0%,0%,0%);stroke-opacity:1;stroke-miterlimit:10;"
       d="M 14.174969 0.00078125 L 14.174969 -3.542188 "
       transform="matrix(1,0,0,-1,3.743,0.2)"
       id="path18" />
    <path
       style="fill:none;stroke-width:0.3985;stroke-linecap:round;stroke-linejoin:round;stroke:rgb(0%,0%,0%);stroke-opacity:1;stroke-miterlimit:10;"
       d="M 28.346844 0.00078125 L 28.346844 -3.542188 "
       transform="matrix(1,0,0,-1,3.743,0.2)"
       id="path20" />
    <g
       clip-path="url(#clip1)"
       clip-rule="nonzero"
       id="g24">
      <path
         style="fill:none;stroke-width:0.3985;stroke-linecap:round;stroke-linejoin:round;stroke:rgb(0%,0%,0%);stroke-opacity:1;stroke-miterlimit:10;"
         d="M -0.0008125 -10.628125 L -0.0008125 -14.175 "
         transform="matrix(1,0,0,-1,3.743,0.2)"
         id="path22" />
    </g>
    <g
       clip-path="url(#clip2)"
       clip-rule="nonzero"
       id="g28">
      <path
         style="fill:none;stroke-width:0.3985;stroke-linecap:round;stroke-linejoin:round;stroke:rgb(0%,0%,0%);stroke-opacity:1;stroke-miterlimit:10;"
         d="M 14.174969 -10.628125 L 14.174969 -14.175 "
         transform="matrix(1,0,0,-1,3.743,0.2)"
         id="path26" />
    </g>
    <g
       clip-path="url(#clip3)"
       clip-rule="nonzero"
       id="g32">
      <path
         style=" stroke:none;fill-rule:nonzero;fill:rgb(100%,100%,100%);fill-opacity:1;"
         d="M 1.195312 3.742188 L 34.636719 3.742188 C 35.1875 3.742188 35.632812 4.1875 35.632812 4.738281 L 35.632812 9.832031 C 35.632812 10.382812 35.1875 10.828125 34.636719 10.828125 L 1.195312 10.828125 C 0.644531 10.828125 0.199219 10.382812 0.199219 9.832031 L 0.199219 4.738281 C 0.199219 4.1875 0.644531 3.742188 1.195312 3.742188 Z M 1.195312 3.742188 "
         id="path30" />
    </g>
    <g
       clip-path="url(#clip4)"
       clip-rule="nonzero"
       id="g36">
      <path
         style="fill:none;stroke-width:0.3985;stroke-linecap:round;stroke-linejoin:round;stroke:rgb(0%,0%,0%);stroke-opacity:1;stroke-miterlimit:10;"
         d="M -2.547688 -3.542188 L 30.893719 -3.542188 C 31.4445 -3.542188 31.889812 -3.9875 31.889812 -4.538281 L 31.889812 -9.632031 C 31.889812 -10.182813 31.4445 -10.628125 30.893719 -10.628125 L -2.547688 -10.628125 C -3.098469 -10.628125 -3.543781 -10.182813 -3.543781 -9.632031 L -3.543781 -4.538281 C -3.543781 -3.9875 -3.098469 -3.542188 -2.547688 -3.542188 Z M -2.547688 -3.542188 "
         transform="matrix(1,0,0,-1,3.743,0.2)"
         id="path34" />
    </g>
  </g>
</svg>
