<?xml version="1.0" encoding="UTF-8" standalone="no"?>
<svg
   xmlns:dc="http://purl.org/dc/elements/1.1/"
   xmlns:cc="http://creativecommons.org/ns#"
   xmlns:rdf="http://www.w3.org/1999/02/22-rdf-syntax-ns#"
   xmlns:svg="http://www.w3.org/2000/svg"
   xmlns="http://www.w3.org/2000/svg"
   xmlns:sodipodi="http://sodipodi.sourceforge.net/DTD/sodipodi-0.dtd"
   xmlns:inkscape="http://www.inkscape.org/namespaces/inkscape"
   width="71.265pt"
   height="28.745pt"
   viewBox="0 0 71.265 28.745"
   version="1.2"
   id="svg32"
   sodipodi:docname="rectangle.pdf">
  <metadata
     id="metadata36">
    <rdf:RDF>
      <cc:Work
         rdf:about="">
        <dc:format>image/svg+xml</dc:format>
        <dc:type
           rdf:resource="http://purl.org/dc/dcmitype/StillImage" />
      </cc:Work>
    </rdf:RDF>
  </metadata>
  <sodipodi:namedview
     pagecolor="#ffffff"
     bordercolor="#666666"
     borderopacity="1"
     objecttolerance="10"
     gridtolerance="10"
     guidetolerance="10"
     inkscape:pageopacity="0"
     inkscape:pageshadow="2"
     inkscape:window-width="640"
     inkscape:window-height="480"
     id="namedview34" />
  <defs
     id="defs11">
    <clipPath
       id="clip1">
      <path
         d="M 7 21 L 8 21 L 8 28.746094 L 7 28.746094 Z M 7 21 "
         id="path2" />
    </clipPath>
    <clipPath
       id="clip2">
      <path
         d="M 35 21 L 36 21 L 36 28.746094 L 35 28.746094 Z M 35 21 "
         id="path5" />
    </clipPath>
    <clipPath
       id="clip3">
      <path
         d="M 0 7 L 71.265625 7 L 71.265625 22 L 0 22 Z M 0 7 "
         id="path8" />
    </clipPath>
  </defs>
  <g
     id="surface2">
    <path
       style="fill:none;stroke-width:0.3985;stroke-linecap:round;stroke-linejoin:round;stroke:rgb(0%,0%,0%);stroke-opacity:1;stroke-miterlimit:10;"
       d="M -0.00084375 -0.00021875 L -0.00084375 -7.086156 "
       transform="matrix(1,0,0,-1,7.286,0.199)"
       id="path13" />
    <path
       style="fill:none;stroke-width:0.3985;stroke-linecap:round;stroke-linejoin:round;stroke:rgb(0%,0%,0%);stroke-opacity:1;stroke-miterlimit:10;"
       d="M 28.346812 -0.00021875 L 28.346812 -7.086156 "
       transform="matrix(1,0,0,-1,7.286,0.199)"
       id="path15" />
    <path
       style="fill:none;stroke-width:0.3985;stroke-linecap:round;stroke-linejoin:round;stroke:rgb(0%,0%,0%);stroke-opacity:1;stroke-miterlimit:10;"
       d="M 56.694469 -0.00021875 L 56.694469 -7.086156 "
       transform="matrix(1,0,0,-1,7.286,0.199)"
       id="path17" />
    <g
       clip-path="url(#clip1)"
       clip-rule="nonzero"
       id="g21">
      <path
         style="fill:none;stroke-width:0.3985;stroke-linecap:round;stroke-linejoin:round;stroke:rgb(0%,0%,0%);stroke-opacity:1;stroke-miterlimit:10;"
         d="M -0.00084375 -21.261938 L -0.00084375 -28.347875 "
         transform="matrix(1,0,0,-1,7.286,0.199)"
         id="path19" />
    </g>
    <g
       clip-path="url(#clip2)"
       clip-rule="nonzero"
       id="g25">
      <path
         style="fill:none;stroke-width:0.3985;stroke-linecap:round;stroke-linejoin:round;stroke:rgb(0%,0%,0%);stroke-opacity:1;stroke-miterlimit:10;"
         d="M 28.346812 -21.261938 L 28.346812 -28.347875 "
         transform="matrix(1,0,0,-1,7.286,0.199)"
         id="path23" />
    </g>
    <g
       clip-path="url(#clip3)"
       clip-rule="nonzero"
       id="g29">
      <path
         style="fill-rule:nonzero;fill:rgb(100%,100%,100%);fill-opacity:1;stroke-width:0.3985;stroke-linecap:round;stroke-linejoin:round;stroke:rgb(0%,0%,0%);stroke-opacity:1;stroke-miterlimit:10;"
         d="M -6.090688 -7.086156 L 62.784312 -7.086156 C 63.335094 -7.086156 63.780406 -7.531469 63.780406 -8.08225 L 63.780406 -20.261938 C 63.780406 -20.812719 63.335094 -21.261938 62.784312 -21.261938 L -6.090688 -21.261938 C -6.641469 -21.261938 -7.086781 -20.812719 -7.086781 -20.261938 L -7.086781 -8.08225 C -7.086781 -7.531469 -6.641469 -7.086156 -6.090688 -7.086156 Z M -6.090688 -7.086156 "
         transform="matrix(1,0,0,-1,7.286,0.199)"
         id="path27" />
    </g>
  </g>
</svg>
